<svg width="1444" height="682" viewBox="0 0 1444 682" fill="none" xmlns="http://www.w3.org/2000/svg">
<g opacity="0.6">
<path fill-rule="evenodd" clip-rule="evenodd" d="M1412.7 309.325C1346.19 309.325 1292.08 255.206 1292.08 188.689H1353.64C1353.66 204.347 1359.89 219.359 1370.96 230.432C1382.03 241.504 1397.04 247.734 1412.7 247.753V309.326V309.325Z" fill="#755EE0"/>
<path fill-rule="evenodd" clip-rule="evenodd" d="M1368.88 188.69C1368.88 181.295 1371.07 174.066 1375.18 167.918C1379.29 161.77 1385.13 156.978 1391.96 154.149C1398.8 151.32 1406.31 150.58 1413.57 152.024C1420.82 153.467 1427.48 157.029 1432.71 162.258C1437.94 167.488 1441.5 174.15 1442.94 181.403C1444.38 188.656 1443.64 196.174 1440.81 203.006C1437.98 209.838 1433.19 215.678 1427.04 219.786C1420.89 223.894 1413.66 226.087 1406.27 226.087C1396.35 226.086 1386.84 222.146 1379.83 215.132C1372.82 208.119 1368.88 198.607 1368.88 188.69Z" fill="#FCD900"/>
</g>
<path opacity="0.4" fill-rule="evenodd" clip-rule="evenodd" d="M1354.06 520.401L1331.99 498.331L1354.06 476.261L1334.14 456.337L1312.07 478.411L1289.99 456.337L1270.07 476.261L1292.14 498.331L1270.07 520.403L1289.99 540.327L1312.07 518.252L1334.14 540.327L1354.06 520.401Z" fill="#C253F4"/>
<path fill-rule="evenodd" clip-rule="evenodd" d="M324.498 6.72337C324.489 5.41565 324.094 4.13973 323.361 3.0565C322.628 1.97328 321.591 1.13125 320.381 0.636601C319.17 0.141948 317.84 0.0168175 316.558 0.276989C315.277 0.53716 314.101 1.17098 313.179 2.09854C312.257 3.02609 311.631 4.20583 311.378 5.48902C311.126 6.7722 311.259 8.10136 311.761 9.3089C312.263 10.5164 313.112 11.5483 314.199 12.2743C315.287 13.0003 316.565 13.3881 317.873 13.3886C318.746 13.3864 319.61 13.2122 320.415 12.8759C321.22 12.5397 321.952 12.048 322.567 11.429C323.182 10.81 323.669 10.0758 324.001 9.26834C324.332 8.46092 324.501 7.59611 324.498 6.72337ZM324.498 44.711C324.489 43.4032 324.094 42.1273 323.361 41.0441C322.628 39.9609 321.591 39.1188 320.381 38.6242C319.17 38.1295 317.84 38.0044 316.558 38.2646C315.277 38.5247 314.101 39.1586 313.179 40.0861C312.257 41.0137 311.631 42.1934 311.378 43.4766C311.126 44.7598 311.259 46.0889 311.761 47.2965C312.263 48.504 313.112 49.5359 314.199 50.2619C315.287 50.9879 316.565 51.3757 317.873 51.3762C318.746 51.374 319.61 51.1998 320.415 50.8635C321.22 50.5273 321.952 50.0356 322.567 49.4166C323.182 48.7976 323.669 48.0633 324.001 47.2559C324.332 46.4485 324.501 45.5837 324.498 44.711ZM324.498 82.6985C324.49 81.3907 324.094 80.1146 323.362 79.0311C322.629 77.9476 321.593 77.1053 320.382 76.6104C319.171 76.1154 317.841 75.99 316.56 76.2499C315.278 76.5099 314.102 77.1436 313.18 78.071C312.258 78.9985 311.631 80.1782 311.378 81.4615C311.126 82.7447 311.259 84.074 311.761 85.2816C312.263 86.4893 313.111 87.5212 314.199 88.2474C315.287 88.9735 316.565 89.3613 317.873 89.3618C318.746 89.3596 319.609 89.1854 320.415 88.8493C321.22 88.5132 321.951 88.0217 322.566 87.4029C323.181 86.7841 323.669 86.0501 324 85.2429C324.331 84.4357 324.501 83.5711 324.498 82.6985ZM324.498 120.686C324.489 119.378 324.094 118.103 323.361 117.019C322.628 115.936 321.591 115.094 320.381 114.599C319.17 114.105 317.84 113.98 316.558 114.24C315.277 114.5 314.101 115.134 313.179 116.061C312.257 116.989 311.631 118.169 311.378 119.452C311.126 120.735 311.259 122.064 311.761 123.272C312.263 124.479 313.112 125.511 314.199 126.237C315.287 126.963 316.565 127.351 317.873 127.351C318.746 127.349 319.61 127.175 320.415 126.839C321.22 126.502 321.952 126.011 322.567 125.392C323.182 124.773 323.669 124.039 324.001 123.231C324.332 122.424 324.501 121.559 324.498 120.686ZM324.498 158.674C324.489 157.366 324.094 156.09 323.361 155.007C322.628 153.924 321.591 153.082 320.381 152.587C319.17 152.092 317.84 151.967 316.558 152.227C315.277 152.488 314.101 153.121 313.179 154.049C312.257 154.976 311.631 156.156 311.378 157.439C311.126 158.723 311.259 160.052 311.761 161.259C312.263 162.467 313.112 163.499 314.199 164.225C315.287 164.951 316.565 165.338 317.873 165.339C318.746 165.337 319.61 165.163 320.415 164.826C321.22 164.49 321.952 163.998 322.567 163.379C323.182 162.76 323.669 162.026 324.001 161.219C324.332 160.411 324.501 159.546 324.498 158.674ZM311.254 196.661C311.262 197.969 311.658 199.245 312.391 200.329C313.124 201.412 314.161 202.254 315.372 202.749C316.583 203.243 317.913 203.368 319.195 203.107C320.477 202.847 321.652 202.212 322.574 201.284C323.496 200.356 324.122 199.176 324.374 197.893C324.625 196.609 324.492 195.28 323.989 194.072C323.486 192.865 322.637 191.833 321.548 191.108C320.46 190.383 319.181 189.996 317.873 189.996C317.001 189.999 316.138 190.173 315.333 190.51C314.528 190.846 313.797 191.338 313.182 191.957C312.568 192.576 312.081 193.31 311.75 194.117C311.419 194.924 311.25 195.789 311.254 196.661ZM284.403 6.72337C284.394 5.41543 283.999 4.13932 283.266 3.05599C282.533 1.97266 281.496 1.13064 280.285 0.636131C279.074 0.141625 277.744 0.0167863 276.462 0.27736C275.18 0.537934 274.004 1.17225 273.083 2.1003C272.161 3.02835 271.535 4.20856 271.283 5.49206C271.031 6.77557 271.165 8.10489 271.668 9.31234C272.171 10.5198 273.02 11.5513 274.108 12.2767C275.197 13.0022 276.476 13.3891 277.784 13.3886C278.656 13.3859 279.519 13.2113 280.324 12.8748C281.129 12.5383 281.86 12.0465 282.474 11.4275C283.089 10.8085 283.576 10.0745 283.907 9.26735C284.238 8.46019 284.406 7.59573 284.403 6.72337ZM284.403 44.711C284.394 43.403 283.999 42.1269 283.266 41.0436C282.533 39.9602 281.496 39.1182 280.285 38.6237C279.074 38.1292 277.744 38.0044 276.462 38.2649C275.18 38.5255 274.004 39.1598 273.083 40.0879C272.161 41.0159 271.535 42.1961 271.283 43.4796C271.031 44.7632 271.165 46.0925 271.668 47.2999C272.171 48.5074 273.02 49.5389 274.108 50.2643C275.197 50.9898 276.476 51.3766 277.784 51.3762C278.656 51.3734 279.519 51.1988 280.324 50.8624C281.129 50.5259 281.86 50.0341 282.474 49.4151C283.089 48.7961 283.576 48.0621 283.907 47.2549C284.238 46.4478 284.406 45.5833 284.403 44.711ZM284.403 82.6985C284.395 81.3905 284 80.1142 283.267 79.0306C282.534 77.947 281.497 77.1047 280.286 76.6099C279.075 76.1151 277.745 75.99 276.463 76.2503C275.181 76.5107 274.005 77.1448 273.083 78.0728C272.161 79.0008 271.535 80.181 271.283 81.4645C271.031 82.7481 271.165 84.0775 271.668 85.2851C272.171 86.4926 273.02 87.5243 274.108 88.2498C275.197 88.9753 276.475 89.3622 277.784 89.3618C278.656 89.359 279.519 89.1845 280.324 88.8481C281.128 88.5118 281.859 88.0202 282.474 87.4014C283.088 86.7826 283.575 86.0488 283.906 85.2419C284.237 84.435 284.406 83.5707 284.403 82.6985ZM284.403 120.686C284.394 119.378 283.999 118.102 283.266 117.019C282.533 115.935 281.496 115.093 280.285 114.599C279.074 114.104 277.744 113.98 276.462 114.24C275.18 114.501 274.004 115.135 273.083 116.063C272.161 116.991 271.535 118.171 271.283 119.455C271.031 120.738 271.165 122.068 271.668 123.275C272.171 124.483 273.02 125.514 274.108 126.239C275.197 126.965 276.476 127.352 277.784 127.351C278.656 127.349 279.519 127.174 280.324 126.838C281.129 126.501 281.86 126.009 282.474 125.39C283.089 124.771 283.576 124.037 283.907 123.23C284.238 122.423 284.406 121.559 284.403 120.686ZM284.403 158.674C284.394 157.366 283.999 156.09 283.266 155.006C282.533 153.923 281.496 153.081 280.285 152.586C279.074 152.092 277.744 151.967 276.462 152.228C275.18 152.488 274.004 153.123 273.083 154.051C272.161 154.979 271.535 156.159 271.283 157.442C271.031 158.726 271.165 160.055 271.668 161.263C272.171 162.47 273.02 163.502 274.108 164.227C275.197 164.953 276.476 165.339 277.784 165.339C278.656 165.336 279.519 165.162 280.324 164.825C281.129 164.489 281.86 163.997 282.474 163.378C283.089 162.759 283.576 162.025 283.907 161.218C284.238 160.411 284.406 159.546 284.403 158.674ZM284.403 196.661C284.395 195.353 283.999 194.077 283.266 192.994C282.533 191.91 281.496 191.068 280.285 190.574C279.074 190.079 277.744 189.954 276.462 190.215C275.18 190.475 274.005 191.11 273.083 192.038C272.161 192.966 271.535 194.146 271.283 195.429C271.031 196.713 271.165 198.042 271.668 199.25C272.171 200.457 273.02 201.489 274.108 202.214C275.197 202.94 276.476 203.326 277.784 203.326C279.545 203.32 281.232 202.614 282.473 201.364C283.714 200.114 284.409 198.423 284.403 196.661ZM244.313 6.72337C244.305 5.41494 243.91 4.1382 243.177 3.05418C242.444 1.97017 241.407 1.12744 240.196 0.63229C238.985 0.137143 237.654 0.0117559 236.372 0.271946C235.089 0.532136 233.913 1.16625 232.99 2.0943C232.068 3.02235 231.441 4.20277 231.189 5.48667C230.936 6.77056 231.07 8.10043 231.573 9.30852C232.075 10.5166 232.924 11.5488 234.013 12.2749C235.101 13.0011 236.38 13.3886 237.689 13.3886C238.561 13.3859 239.425 13.2114 240.23 12.875C241.035 12.5386 241.766 12.0469 242.381 11.428C242.997 10.809 243.484 10.075 243.815 9.2678C244.147 8.46058 244.316 7.59598 244.313 6.72337ZM244.313 44.711C244.305 43.4025 243.91 42.1258 243.177 41.0418C242.444 39.9578 241.407 39.115 240.196 38.6199C238.985 38.1247 237.654 37.9993 236.372 38.2595C235.089 38.5197 233.913 39.1538 232.99 40.0819C232.068 41.0099 231.441 42.1904 231.189 43.4743C230.936 44.7581 231.07 46.088 231.573 47.2961C232.075 48.5042 232.924 49.5364 234.013 50.2625C235.101 50.9886 236.38 51.3762 237.689 51.3762C238.561 51.3736 239.425 51.1991 240.23 50.8627C241.035 50.5263 241.766 50.0346 242.382 49.4157C242.997 48.7968 243.484 48.0627 243.815 47.2555C244.147 46.4482 244.316 45.5836 244.313 44.711ZM244.313 82.6985C244.306 81.39 243.911 80.1131 243.178 79.0288C242.446 77.9445 241.408 77.1015 240.197 76.606C238.986 76.1106 237.655 75.9849 236.373 76.2449C235.09 76.5049 233.914 77.1388 232.991 78.0668C232.068 78.9948 231.441 80.1752 231.189 81.4591C230.936 82.7431 231.07 84.0731 231.572 85.2813C232.075 86.4895 232.924 87.5218 234.013 88.248C235.101 88.9742 236.38 89.3618 237.689 89.3618C239.451 89.3564 241.138 88.6514 242.381 87.4019C243.623 86.1523 244.318 84.4605 244.313 82.6985ZM244.313 120.686C244.305 119.378 243.91 118.101 243.177 117.017C242.444 115.933 241.407 115.09 240.196 114.595C238.985 114.1 237.654 113.975 236.372 114.235C235.089 114.495 233.913 115.129 232.99 116.057C232.068 116.985 231.441 118.166 231.189 119.449C230.936 120.733 231.07 122.063 231.573 123.271C232.075 124.479 232.924 125.512 234.013 126.238C235.101 126.964 236.38 127.351 237.689 127.351C238.561 127.349 239.425 127.174 240.23 126.838C241.035 126.501 241.766 126.01 242.381 125.391C242.997 124.772 243.484 124.038 243.815 123.231C244.147 122.423 244.316 121.559 244.313 120.686ZM244.313 158.674C244.305 157.365 243.91 156.089 243.177 155.005C242.444 153.921 241.407 153.078 240.196 152.583C238.985 152.087 237.654 151.962 236.372 152.222C235.089 152.482 233.913 153.117 232.99 154.045C232.068 154.973 231.441 156.153 231.189 157.437C230.936 158.721 231.07 160.051 231.573 161.259C232.075 162.467 232.924 163.499 234.013 164.225C235.101 164.951 236.38 165.339 237.689 165.339C238.561 165.336 239.425 165.162 240.23 164.825C241.035 164.489 241.766 163.997 242.382 163.378C242.997 162.76 243.484 162.025 243.815 161.218C244.147 160.411 244.316 159.546 244.313 158.674ZM244.313 196.661C244.305 195.353 243.91 194.076 243.177 192.992C242.445 191.908 241.407 191.065 240.196 190.57C238.985 190.075 237.654 189.949 236.372 190.209C235.09 190.469 233.913 191.104 232.991 192.032C232.068 192.96 231.441 194.14 231.189 195.424C230.937 196.708 231.07 198.038 231.573 199.246C232.075 200.454 232.924 201.486 234.013 202.212C235.101 202.938 236.38 203.326 237.689 203.326C239.451 203.32 241.138 202.614 242.38 201.365C243.622 200.115 244.318 198.423 244.313 196.661Z" fill="#FCD900"/>
<circle opacity="0.8" cx="100.498" cy="527.326" r="154" fill="url(#paint0_linear_613_74)"/>
<defs>
<linearGradient id="paint0_linear_613_74" x1="9.99804" y1="392.326" x2="194.498" y2="671.326" gradientUnits="userSpaceOnUse">
<stop stop-color="#DBFBFF"/>
<stop offset="0.197917" stop-color="#C3EDF2"/>
<stop offset="0.40625" stop-color="#B6E8EE"/>
<stop offset="0.614583" stop-color="#A6E4EB"/>
<stop offset="0.822917" stop-color="#8BE1EB"/>
<stop offset="1" stop-color="#7BD7E0"/>
</linearGradient>
</defs>
</svg>
