<svg width="22" height="21" viewBox="0 0 22 21" fill="none" xmlns="http://www.w3.org/2000/svg">
<path d="M2 1.72656L20 19.7266" stroke="#64748B" stroke-width="1.5" stroke-linecap="round" stroke-linejoin="round"/>
<path d="M9.58402 9.31348C9.20874 9.68849 8.99781 10.1972 8.99762 10.7278C8.99743 11.2583 9.20801 11.7672 9.58303 12.1425C9.95804 12.5178 10.4668 12.7287 10.9973 12.7289C11.5279 12.7291 12.0367 12.5185 12.412 12.1435" stroke="#64748B" stroke-width="1.5" stroke-linecap="round" stroke-linejoin="round"/>
<path d="M8.363 4.09162C9.22042 3.84634 10.1082 3.72346 11 3.72662C15 3.72662 18.333 6.05962 21 10.7266C20.222 12.0876 19.388 13.2506 18.497 14.2146M16.357 16.0756C14.726 17.1756 12.942 17.7266 11 17.7266C7 17.7266 3.667 15.3936 1 10.7266C2.369 8.33162 3.913 6.55162 5.632 5.38562" stroke="#64748B" stroke-width="1.5" stroke-linecap="round" stroke-linejoin="round"/>
</svg>
