<svg width="16" height="21" viewBox="0 0 16 21" fill="none" xmlns="http://www.w3.org/2000/svg">
<path d="M13 9.72656H3C1.89543 9.72656 1 10.622 1 11.7266V17.7266C1 18.8311 1.89543 19.7266 3 19.7266H13C14.1046 19.7266 15 18.8311 15 17.7266V11.7266C15 10.622 14.1046 9.72656 13 9.72656Z" stroke="#64748B" stroke-width="1.5" stroke-linecap="round" stroke-linejoin="round"/>
<path d="M8 15.7266C8.55228 15.7266 9 15.2788 9 14.7266C9 14.1743 8.55228 13.7266 8 13.7266C7.44772 13.7266 7 14.1743 7 14.7266C7 15.2788 7.44772 15.7266 8 15.7266Z" stroke="#64748B" stroke-width="2" stroke-linecap="round" stroke-linejoin="round"/>
<path d="M4 9.72656V5.72656C4 4.6657 4.42143 3.64828 5.17157 2.89814C5.92172 2.14799 6.93913 1.72656 8 1.72656C9.06087 1.72656 10.0783 2.14799 10.8284 2.89814C11.5786 3.64828 12 4.6657 12 5.72656V9.72656" stroke="#64748B" stroke-width="1.5" stroke-linecap="round" stroke-linejoin="round"/>
</svg>
