<svg width="49" height="48" viewBox="0 0 49 48" fill="none" xmlns="http://www.w3.org/2000/svg">
<path d="M45.7736 27.0317H41.3687C42.0985 23.6757 41.5574 20.172 39.7726 17.1722L37.0585 12.6135C36.6311 11.895 35.7019 11.6593 34.9804 12.0868L30.4216 14.8C28.6709 15.8421 27.1892 17.2662 26.0683 18.9396V9.33484C27.8319 8.70882 29.0999 7.02857 29.0999 5.05274C29.0999 2.54487 27.0604 0.505371 24.5525 0.505371H13.942C11.4341 0.505371 9.39462 2.54487 9.39462 5.05274C9.39462 7.02857 10.6626 8.70882 12.4262 9.33484V20.4903L3.44363 33.3222C2.37879 34.8441 1.81567 36.6304 1.81567 38.488C1.81567 43.4545 5.85601 47.4948 10.8225 47.4948H33.6473C41.1694 47.4948 47.2894 41.3748 47.2894 33.8527V28.5475C47.2894 27.7108 46.6103 27.0317 45.7736 27.0317ZM31.9723 17.4057L35.229 15.467L37.1677 18.7229C38.7054 21.3073 39.0548 24.373 38.1863 27.2303C36.4719 27.5205 34.8303 28.1321 33.3486 29.0393L35.1168 22.0728C35.3222 21.2611 34.8318 20.4365 34.0209 20.2303C33.2054 20.0227 32.3846 20.5161 32.1785 21.3263L30.7089 27.1181L27.5492 22.6041C28.4087 20.4418 29.9631 18.6016 31.9723 17.4057ZM13.942 3.53695H24.5525C25.3885 3.53695 26.0683 4.21678 26.0683 5.05274C26.0683 5.8887 25.3885 6.56853 24.5525 6.56853H13.942C13.106 6.56853 12.4262 5.8887 12.4262 5.05274C12.4262 4.21678 13.106 3.53695 13.942 3.53695ZM4.84725 38.488C4.84725 37.2557 5.22089 36.0703 5.92801 35.0608L15.1842 21.8378C15.3623 21.5832 15.4578 21.2793 15.4578 20.9685V9.60011H23.0367V20.9685C23.0367 21.2793 23.1322 21.5832 23.3103 21.8371L32.5665 35.0608C33.2736 36.0703 33.6473 37.2557 33.6473 38.488C33.6473 41.7826 30.9666 44.4633 27.672 44.4633H10.8225C7.52793 44.4633 4.84725 41.7826 4.84725 38.488ZM44.2578 33.8527C44.2578 39.4399 39.915 44.0207 34.4286 44.4239C35.5268 43.1748 36.2817 41.6234 36.5553 39.9091L40.7821 35.6823C41.374 35.0904 41.374 34.1309 40.7821 33.539C40.1902 32.9471 39.2307 32.9471 38.6387 33.539L36.2931 35.8847C36.0195 34.9775 35.6041 34.1135 35.0509 33.323L34.2028 32.1111C36.0126 30.7848 38.203 30.0633 40.4683 30.0633H44.2578V33.8527Z" fill="#27E0F6"/>
<path d="M31.373 38.4912C31.373 37.7295 31.1434 36.9959 30.7045 36.363L24.0881 26.9197C23.8047 26.5149 23.3408 26.2739 22.8467 26.2739H15.6467C15.1525 26.2739 14.6887 26.5149 14.4052 26.9204L7.78428 36.3691C7.35 36.9959 7.12036 37.7295 7.12036 38.4912C7.12036 40.5299 8.77939 42.1897 10.8189 42.1897H27.6745C29.714 42.1897 31.373 40.5307 31.373 38.4912ZM10.1519 38.4912C10.1519 38.3457 10.1929 38.2168 10.2709 38.1024L16.4356 29.3055H22.0577L28.2179 38.0971C28.3005 38.2168 28.3414 38.3457 28.3414 38.4912C28.3414 38.8588 28.042 39.1581 27.6745 39.1581H10.8189C10.4513 39.1581 10.1519 38.8588 10.1519 38.4912Z" fill="#27E0F6"/>
<path d="M16.2317 34.6106H16.2242C15.3874 34.6106 14.7122 35.2897 14.7122 36.1264C14.7122 36.9631 15.3943 37.6422 16.2317 37.6422C17.0692 37.6422 17.7475 36.9631 17.7475 36.1264C17.7475 35.2897 17.0692 34.6106 16.2317 34.6106Z" fill="#27E0F6"/>
<path d="M20.7786 31.5791H20.771C19.9343 31.5791 19.259 32.2582 19.259 33.0949C19.259 33.9316 19.9411 34.6107 20.7786 34.6107C21.6161 34.6107 22.2944 33.9316 22.2944 33.0949C22.2944 32.2582 21.6161 31.5791 20.7786 31.5791Z" fill="#27E0F6"/>
</svg>
