<svg width="41" height="48" viewBox="0 0 41 48" fill="none" xmlns="http://www.w3.org/2000/svg">
<g clip-path="url(#clip0_574_18600)">
<path d="M39.0892 41.113L26.419 22.4733V8.4375H28.2423V0H12.0236V8.4375H13.847V22.4733L1.17678 41.113C0.256119 42.4669 0.160538 44.2072 0.926284 45.6541C1.6924 47.101 3.18544 48 4.82276 48H35.4428C37.0801 48 38.5732 47.101 39.3393 45.6541C40.1054 44.2072 40.0094 42.4669 39.0892 41.113ZM14.8361 2.8125H25.4298V5.625H14.8361V2.8125ZM16.6595 23.3386V8.4375H23.6065V23.3386L29.1689 31.5216C28.7356 31.8219 28.1504 32.1537 27.4484 32.3727C25.4394 32.9993 23.3604 32.4357 21.2693 30.6969C18.2649 28.199 15.4444 27.8914 13.324 28.2455L16.6595 23.3386ZM36.8538 44.3383C36.5722 44.87 36.0448 45.1875 35.4428 45.1875H4.82276C4.22108 45.1875 3.69375 44.87 3.41213 44.3383C3.13051 43.8062 3.1642 43.1917 3.50258 42.694L10.2969 32.699C10.5727 32.4536 11.5424 31.6571 12.9333 31.2231C15.1379 30.5347 17.3377 31.0854 19.4712 32.8594C21.8307 34.8215 24.0229 35.4335 25.8393 35.4331C26.8251 35.4331 27.7004 35.2529 28.4317 35.0105C29.3754 34.6978 30.1562 34.2601 30.7516 33.8503L36.763 42.694C37.1014 43.1917 37.135 43.8065 36.8538 44.3383Z" fill="#27E0F6"/>
</g>
<defs>
<clipPath id="clip0_574_18600">
<rect width="40" height="48" fill="white" transform="translate(0.0999756)"/>
</clipPath>
</defs>
</svg>
