<svg width="39" height="48" viewBox="0 0 39 48" fill="none" xmlns="http://www.w3.org/2000/svg">
<path d="M36.3258 0.772865C36.3258 0.331228 35.9946 0 35.553 0H8.11624C5.19039 0 2.927 2.04257 2.927 4.7476C2.927 10.4337 2.927 37.9808 2.927 42.7284C2.927 45.5991 5.35601 47.6968 7.6746 47.6968C10.6005 47.6968 33.0136 47.6968 35.4978 47.6968C36.1602 47.6968 36.5467 46.924 36.1602 46.4271C34.8905 44.771 34.6697 41.5139 36.2154 38.9745C36.2706 38.8641 36.3258 38.6985 36.3258 38.5881C36.3258 33.7853 36.3258 5.52047 36.3258 0.772865ZM4.52794 4.7476C4.52794 2.64982 6.34969 1.54573 8.11624 1.54573H34.7249C34.7249 6.12772 34.7249 33.178 34.7249 37.7048H8.11624C6.79133 37.7048 5.57683 38.0912 4.52794 39.0297C4.52794 34.8342 4.52794 9.05357 4.52794 4.7476ZM34.2281 46.0959H7.95063C6.07367 46.0959 4.58314 44.6054 4.58314 42.7284C4.58314 41.0171 5.90806 39.3609 8.17145 39.3609H34.3385C33.4 41.5691 33.2896 43.8877 34.2281 46.0959Z" fill="#27E0F6"/>
<path d="M8.11759 29.0376C10.6018 29.0376 27.8809 29.0376 31.5796 29.0376C32.0212 29.0376 32.3525 28.7064 32.3525 28.2647V27.1055V22.3026V17.555V12.7522V11.5929C32.3525 11.1513 32.0212 10.8201 31.5796 10.8201C29.0402 10.8201 10.6018 10.8201 8.11759 10.8201C7.67595 10.8201 7.34473 11.1513 7.34473 11.5929C7.34473 16.6718 7.34473 21.7506 7.34473 26.8846V28.32C7.34473 28.6512 7.67595 29.0376 8.11759 29.0376ZM18.0544 17.4998C18.0544 15.5125 18.0544 14.298 18.0544 12.3106H21.2563C21.2563 14.298 21.2563 15.4573 21.2563 17.4998C21.2563 17.9415 21.5875 18.2727 22.0292 18.2727C25.3415 18.2727 27.5496 18.2727 30.7515 18.2727V21.4746C27.5496 21.4746 25.2862 21.4746 22.0292 21.4746C21.5875 21.4746 21.2563 21.8058 21.2563 22.2474C21.2563 24.2348 21.2563 25.4493 21.2563 27.4367H18.0544C18.0544 25.4493 18.0544 24.29 18.0544 22.2474C18.0544 21.8058 17.7232 21.4746 17.2816 21.4746C14.1901 21.4746 11.8715 21.4746 8.94566 21.4746V18.2727C11.8715 18.2727 14.1901 18.2727 17.2816 18.2727C17.7232 18.2727 18.0544 17.9415 18.0544 17.4998ZM30.8067 25.5045L27.6048 23.0755H30.8067V25.5045ZM30.8067 16.6718H27.6048L30.8067 14.2428V16.6718ZM11.7611 23.0755L8.94566 25.2285V23.0755H11.7611ZM8.94566 16.6718V14.5188L11.7611 16.6718H8.94566ZM8.94566 27.4367V27.1607L14.4109 23.0203H16.5087L10.7122 27.3815L8.94566 27.4367ZM16.4535 25.0629V27.4367H13.3068L16.4535 25.0629ZM22.8572 25.0629L26.0039 27.4367H22.8572V25.0629ZM28.6537 27.4367L22.8572 23.0755H24.955L30.7515 27.4367H28.6537ZM30.7515 12.3106L24.8998 16.6718H22.802L28.5985 12.3106H30.7515ZM22.8572 14.6844V12.3106H26.0039L22.8572 14.6844ZM16.4535 14.6844L13.3068 12.3106H16.4535V14.6844ZM8.94566 12.3106H10.7122L16.4535 16.6718H14.3557L8.89046 12.5314L8.94566 12.3106Z" fill="#27E0F6"/>
</svg>
