<svg viewBox="0 0 32 32" xml:space="preserve" xmlns="http://www.w3.org/2000/svg" enable-background="new 0 0 32 32"><path d="M29 15a1 1 0 0 0-1 1c0 6.617-5.383 12-12 12S4 22.617 4 16 9.383 4 16 4c4.144 0 7.94 2.095 10.154 5.604a1 1 0 0 0 1.692-1.069A13.939 13.939 0 0 0 16 2C8.28 2 2 8.28 2 16s6.28 14 14 14 14-6.28 14-14a1 1 0 0 0-1-1z" fill="#27e0f6" class="fill-000000"></path><path d="M5 17a1 1 0 0 0 1 1h1.12c2.44 4.506 8.09 7.705 8.394 7.874a1 1 0 0 0 .972 0c.304-.169 5.953-3.368 8.394-7.874H26a1 1 0 1 0 0-2h-.3c.18-.65.3-1.315.3-2 0-3.309-2.687-6-5.988-6A6.045 6.045 0 0 0 16 9.526 6.045 6.045 0 0 0 11.988 8C8.687 8 6 10.691 6 14c0 .685.12 1.35.3 2H6a1 1 0 0 0-1 1zm11 6.837c-1.253-.77-4.622-3.007-6.565-5.837H12a1 1 0 0 0 .707-.293l.928-.928 1.436 3.592a1 1 0 0 0 1.636.336L19.414 18h3.151c-1.943 2.83-5.312 5.067-6.565 5.837zM8 14c0-2.206 1.79-4 3.988-4 1.286 0 2.455.582 3.21 1.597.376.507 1.228.507 1.605 0A3.954 3.954 0 0 1 20.012 10C22.21 10 24 11.794 24 14c0 .68-.149 1.348-.387 2H19a1 1 0 0 0-.707.293l-1.928 1.928-1.436-3.592a1 1 0 0 0-1.636-.336L11.586 16H8.387C8.149 15.348 8 14.68 8 14z" fill="#27e0f6" class="fill-000000"></path></svg>