<svg viewBox="0 0 64 64" xmlns="http://www.w3.org/2000/svg"><g data-name="17-Report"><path d="M41 15h17v4H41zM40 23h11M59 23h-2M55 23h-2M38 15h-6a.979.979 0 0 0-1 1v2" fill="none" stroke="#27e0f6" stroke-linejoin="round" stroke-width="2px" class="stroke-000000"></path><rect height="62" rx="2" ry="2" width="62" x="1" y="1" fill="none" stroke="#27e0f6" stroke-linejoin="round" stroke-width="2px" class="stroke-000000"></rect><path d="M1 9h62M4 5h2M8 5h2M58 5h2M5 17h4a1.959 1.959 0 0 1 2 2v32a1.959 1.959 0 0 0 2 2h36a1.959 1.959 0 0 1 2 2v3" fill="none" stroke="#27e0f6" stroke-linejoin="round" stroke-width="2px" class="stroke-000000"></path><path d="M16 37h6v16h-6zM22 31h6v22h-6zM28 21h6v32h-6zM34 42h6v11h-6zM40 31h6v22h-6z" fill="none" stroke="#27e0f6" stroke-linejoin="round" stroke-width="2px" class="stroke-000000"></path></g></svg>