<svg width="49" height="49" viewBox="0 0 49 49" fill="none" xmlns="http://www.w3.org/2000/svg">
<g clip-path="url(#clip0_574_18578)">
<path d="M0.5 0.530029V48.53H48.5V0.530029H0.5ZM45.623 23.1052H25.9248V3.40703H45.6229L45.623 23.1052ZM23.0752 3.40703V23.1051H3.377V3.40703H23.0752ZM3.377 25.9548H23.0752V45.6529H3.377V25.9548ZM25.9248 45.653V25.9548H45.6229V45.6529L25.9248 45.653Z" fill="#27E0F6"/>
<path d="M11.802 19.3948H14.6517V14.6807H19.3658V11.831H14.6517V7.11694H11.802V11.831H7.08789V14.6807H11.802V19.3948Z" fill="#27E0F6"/>
<path d="M29.6055 34.3787H41.8833V37.2284H29.6055V34.3787Z" fill="#27E0F6"/>
<path d="M18.605 32.4708L16.5899 30.4558L13.2566 33.7892L9.92326 30.4558L7.9082 32.4708L11.2415 35.8042L7.9082 39.1376L9.92326 41.1527L13.2566 37.8193L16.5899 41.1527L18.605 39.1376L15.2716 35.8042L18.605 32.4708Z" fill="#27E0F6"/>
<path d="M29.6055 11.8318H41.8833V14.6814H29.6055V11.8318Z" fill="#27E0F6"/>
<path d="M34.2988 28.658H37.1906V31.5077H34.2988V28.658Z" fill="#27E0F6"/>
<path d="M34.2988 39.9666H37.1906V42.8162H34.2988V39.9666Z" fill="#27E0F6"/>
</g>
<defs>
<clipPath id="clip0_574_18578">
<rect width="48" height="48" fill="white" transform="translate(0.5 0.530029)"/>
</clipPath>
</defs>
</svg>
