<svg width="48" height="48" viewBox="0 0 48 48" fill="none" xmlns="http://www.w3.org/2000/svg">
<path d="M28.4437 28.382C28.1916 28.1298 27.7464 28.1298 27.4943 28.382L20.9726 34.9036C18.8485 37.0272 15.393 37.0272 13.2684 34.9036C11.1442 32.7795 11.1442 29.3235 13.2684 27.1994L19.723 20.7447L19.7906 20.6772C19.9166 20.5511 19.9873 20.3807 19.9873 20.2024C19.9873 20.0241 19.9166 19.8538 19.7906 19.7277L14.088 14.0263C13.8359 13.7741 13.3902 13.7741 13.1386 14.0263L6.61693 20.5479C0.825281 26.3396 0.825281 35.7634 6.61693 41.555C9.51223 44.4509 13.3164 45.8988 17.1205 45.8988C20.9246 45.8988 24.7282 44.4509 27.6241 41.555L34.1457 35.0334C34.4079 34.7712 34.4079 34.3461 34.1457 34.0839L28.4437 28.382ZM27.902 29.8731L32.6546 34.6256L29.9745 37.3063L25.2219 32.5537L27.902 29.8731ZM13.5463 15.5179L18.2989 20.2705L15.6188 22.9506L10.8662 18.198L13.5463 15.5179ZM26.6746 40.6056C21.4062 45.8735 12.8348 45.8735 7.56638 40.6056C2.29851 35.3372 2.29851 26.7658 7.56638 21.4974L9.91627 19.1475L14.6683 23.9L12.3179 26.2499C9.67047 28.8973 9.67047 33.2057 12.3179 35.8531C14.9658 38.5005 19.2742 38.5005 21.921 35.8531L24.2709 33.5032L29.0234 38.2557L26.6746 40.6056ZM42.9018 3.99056C39.691 0.779838 34.4664 0.779838 31.2562 3.99056C28.0455 7.20076 28.0455 12.4248 31.2562 15.6361C32.8613 17.2412 34.9702 18.044 37.079 18.044C39.1878 18.044 41.2967 17.2412 42.9018 15.6361C44.4573 14.0811 45.3139 12.0129 45.3139 9.81333C45.3139 7.61377 44.4573 5.54608 42.9018 3.99056ZM41.9523 14.6867C39.2659 17.3736 34.8932 17.3741 32.2057 14.6867C29.5187 11.9992 29.5187 7.62696 32.2057 4.94001C33.5492 3.59654 35.3141 2.92454 37.079 2.92454C38.8439 2.92454 40.6088 3.59654 41.9523 4.94001C43.2541 6.24182 43.971 7.97245 43.971 9.81333C43.971 11.6542 43.2541 13.3848 41.9523 14.6867ZM17.2281 12.7883C17.1041 12.533 17.1537 12.2281 17.3521 12.025C17.5504 11.8225 17.8542 11.766 18.1121 11.8847L20.5417 12.9998L20.135 12.2961C20.0253 12.1057 20.0153 11.8736 20.1091 11.6748C20.203 11.4759 20.3877 11.3351 20.605 11.2987L22.708 10.9427L24.2619 9.38133C24.5236 9.11865 24.9482 9.1176 25.2114 9.37922C25.4741 9.64085 25.4751 10.066 25.2135 10.3287L23.5077 12.0424C23.409 12.1416 23.2819 12.2075 23.1437 12.2307L21.7812 12.4612L22.7581 14.1534C22.9042 14.4066 22.8699 14.7252 22.6727 14.9414C22.4759 15.1577 22.1615 15.2215 21.8962 15.0991L19.2536 13.8859L19.646 14.694C19.771 14.9514 19.7193 15.26 19.5168 15.462L18.8401 16.1388C18.7087 16.2701 18.5373 16.3355 18.3653 16.3355C18.1934 16.3355 18.0219 16.2701 17.8906 16.1388C17.6284 15.8766 17.6284 15.4515 17.8906 15.1893L18.2292 14.8507L17.2281 12.7883ZM38.3412 22.5091C38.6029 22.7718 38.6018 23.1969 38.3386 23.4585L36.7773 25.0125L36.4218 27.1155C36.3848 27.3323 36.2445 27.5174 36.0451 27.6113C35.8463 27.7052 35.6137 27.6957 35.4238 27.5849L34.7207 27.1788L35.8357 29.6078C35.9539 29.8657 35.8975 30.1696 35.6949 30.3679C35.5667 30.4934 35.3969 30.5594 35.2249 30.5594C35.1258 30.5594 35.0255 30.5372 34.9317 30.4918L32.8682 29.4896L32.5295 29.8283C32.2679 30.0904 31.8423 30.091 31.5801 29.8283C31.3179 29.5661 31.3179 29.141 31.5801 28.8788L32.2568 28.2021C32.4589 28.0001 32.7674 27.9478 33.0248 28.0729L33.8329 28.4653L32.6197 25.8227C32.4979 25.5568 32.5617 25.243 32.778 25.0462C32.9948 24.8489 33.3139 24.8152 33.566 24.9613L35.2582 25.9382L35.4887 24.5757C35.5124 24.4375 35.5783 24.3104 35.677 24.2118L37.3907 22.5059C37.6545 22.2453 38.0791 22.2464 38.3412 22.5091ZM19.8734 27.0696L27.8197 19.1232C28.0819 18.8611 28.507 18.8611 28.7692 19.1232C29.0313 19.3854 29.0313 19.8105 28.7692 20.0727L20.8228 28.019H23.5657C23.9365 28.019 24.2372 28.3197 24.2372 28.6905C24.2372 29.0613 23.9365 29.362 23.5657 29.362H19.2019C19.1576 29.362 19.1138 29.3572 19.0706 29.3488C19.05 29.3446 19.031 29.3372 19.0115 29.3314C18.9893 29.3251 18.9672 29.3198 18.9455 29.3108C18.9213 29.3008 18.8991 29.2871 18.8764 29.2744C18.8612 29.266 18.8448 29.2591 18.83 29.2491C18.7562 29.2001 18.6929 29.1362 18.6433 29.0624C18.6333 29.0471 18.6264 29.0302 18.6175 29.0144C18.6053 28.9922 18.5916 28.9706 18.5821 28.9469C18.5731 28.9252 18.5679 28.9026 18.5615 28.8799C18.5557 28.8604 18.5484 28.8419 18.5441 28.8219C18.5357 28.7786 18.531 28.7343 18.531 28.6905V24.3267C18.531 23.9559 18.8316 23.6553 19.2024 23.6553C19.5732 23.6553 19.8739 23.9559 19.8739 24.3267L19.8734 27.0696Z" fill="#27E0F6"/>
</svg>
