<svg width="45" height="49" viewBox="0 0 45 49" fill="none" xmlns="http://www.w3.org/2000/svg">
<g clip-path="url(#clip0_574_18589)">
<path d="M22.7526 20.1123C20.2196 20.1123 18.1589 22.173 18.1589 24.7061C18.1589 27.2392 20.2196 29.2999 22.7526 29.2999C25.2857 29.2999 27.3464 27.2392 27.3464 24.7061C27.3464 22.173 25.2857 20.1123 22.7526 20.1123ZM22.7526 26.4873C21.7705 26.4873 20.9714 25.6883 20.9714 24.7061C20.9714 23.7239 21.7705 22.9249 22.7526 22.9249C23.7348 22.9249 24.5339 23.7239 24.5339 24.7061C24.5339 25.6883 23.7348 26.4873 22.7526 26.4873Z" fill="#27E0F6"/>
<path d="M39.8046 24.7061C40.2246 24.2286 40.6201 23.7496 40.9893 23.2709C44.1779 19.1349 45.0824 15.3831 43.537 12.7061C41.9912 10.0291 38.2896 8.93664 33.1139 9.62988C32.5144 9.71008 31.9021 9.81335 31.2785 9.93823C31.0748 9.33581 30.858 8.7539 30.6277 8.1947C28.6403 3.36547 25.8435 0.706055 22.7523 0.706055C19.6611 0.706055 16.864 3.36547 14.877 8.1947C14.6466 8.7539 14.4298 9.33581 14.2262 9.93823C13.6026 9.81335 12.9899 9.71008 12.3908 9.62988C7.21505 8.93664 3.51339 10.0291 1.96761 12.7061C0.422207 15.3831 1.32675 19.1349 4.51534 23.2709C4.88448 23.7496 5.27999 24.2286 5.69967 24.7061C5.27999 25.1836 4.88448 25.6626 4.51534 26.1413C1.32675 30.2773 0.422207 34.0291 1.96761 36.7061C3.2098 38.8576 5.84469 39.9855 9.51815 39.9855C10.4154 39.9855 11.3749 39.9181 12.3908 39.7823C12.9899 39.7021 13.6026 39.5988 14.2258 39.4739C14.4295 40.0763 14.6466 40.6582 14.8766 41.2175C16.864 46.0467 19.6611 48.7061 22.7523 48.7061C25.8435 48.7061 28.6403 46.0467 30.6277 41.2175C30.8577 40.6582 31.0748 40.0763 31.2785 39.4739C31.9021 39.5988 32.5144 39.7021 33.1135 39.7823C34.1298 39.9185 35.0889 39.9859 35.9861 39.9855C39.6596 39.9855 42.2948 38.8576 43.5366 36.7061C45.0824 34.0291 44.1775 30.2773 40.9893 26.1416C40.6201 25.6626 40.2246 25.1836 39.8046 24.7061ZM33.4871 12.4175C34.4008 12.2952 35.2518 12.2352 36.0322 12.2352C38.5954 12.2352 40.3923 12.8848 41.1013 14.1123C42.1286 15.8914 40.9369 19.1009 37.8556 22.6678C36.4527 21.3099 34.8655 19.9801 33.1351 18.7116C32.9019 16.5802 32.5441 14.5423 32.0702 12.6493C32.5507 12.5574 33.0238 12.4798 33.4871 12.4175ZM26.6983 31.5411C25.3869 32.2984 24.0659 32.9887 22.7523 33.6069C21.4384 32.9887 20.1174 32.2984 18.806 31.5411C17.4683 30.7687 16.2125 29.97 15.0425 29.1574C14.9238 27.7376 14.8598 26.2508 14.8598 24.7061C14.8598 23.1614 14.9238 21.6746 15.0425 20.2548C16.2125 19.4422 17.4683 18.6435 18.806 17.8711C20.1174 17.1138 21.4384 16.4235 22.7523 15.8053C24.0663 16.4235 25.3869 17.1138 26.6983 17.8711C28.0364 18.6435 29.2918 19.4422 30.4622 20.2548C30.5808 21.6746 30.6445 23.1614 30.6445 24.7061C30.6445 26.2508 30.5808 27.7376 30.4622 29.1574C29.2918 29.97 28.0364 30.7687 26.6983 31.5411ZM30.0139 32.8239C29.825 33.9826 29.5975 35.0801 29.3386 36.1103C28.299 35.8147 27.2344 35.4606 26.1544 35.0523C26.8063 34.7092 27.4567 34.3506 28.1045 33.9767C28.7534 33.6021 29.3903 33.2172 30.0139 32.8239ZM19.3502 35.0523C18.2703 35.461 17.2057 35.8147 16.166 36.1103C15.9071 35.0801 15.6797 33.9826 15.4907 32.8239C16.1144 33.2176 16.7512 33.6025 17.3998 33.9767C18.0476 34.3506 18.6984 34.7092 19.3502 35.0523ZM12.0912 26.936C11.1815 26.1922 10.344 25.4458 9.58077 24.7061C10.344 23.9664 11.1815 23.22 12.0912 22.4762C12.0623 23.2131 12.0473 23.9568 12.0473 24.7061C12.0473 25.4554 12.0623 26.1991 12.0912 26.936ZM15.4907 16.5883C15.6797 15.4296 15.9071 14.3321 16.166 13.3019C17.2057 13.5975 18.2703 13.9516 19.3502 14.3599C18.6984 14.703 18.0476 15.0616 17.3998 15.4355C16.7512 15.8101 16.1144 16.195 15.4907 16.5883ZM26.1544 14.3599C27.2344 13.9512 28.299 13.5975 29.3386 13.3019C29.5975 14.3321 29.8246 15.4296 30.0139 16.5883C29.3903 16.1946 28.7534 15.8097 28.1049 15.4355C27.457 15.0616 26.8063 14.703 26.1544 14.3599ZM33.4135 22.4762C34.3231 23.22 35.1607 23.9664 35.9238 24.7061C35.1607 25.4458 34.3231 26.1922 33.4135 26.936C33.442 26.1991 33.457 25.4554 33.457 24.7061C33.457 23.9568 33.442 23.2131 33.4135 22.4762ZM22.7523 3.51855C24.8068 3.51855 26.9901 6.15527 28.5385 10.6069C26.6613 11.1435 24.716 11.8528 22.7523 12.7167C20.7883 11.8528 18.8434 11.1435 16.9658 10.6069C18.5142 6.15527 20.6979 3.51855 22.7523 3.51855ZM4.40328 14.1123C5.11227 12.8844 6.90853 12.2352 9.47237 12.2352C10.2528 12.2352 11.1039 12.2952 12.0172 12.4175C12.4808 12.4798 12.954 12.5578 13.4345 12.6493C12.9606 14.5423 12.6028 16.5802 12.3692 18.7116C10.6391 19.9801 9.05197 21.3099 7.64901 22.6678C4.56771 19.1009 3.37606 15.8918 4.40328 14.1123ZM12.0172 36.9947C8.10275 37.5187 5.32797 36.9013 4.40328 35.2999C3.37606 33.5204 4.56771 30.3113 7.64901 26.7444C9.05197 28.102 10.6391 29.4321 12.3692 30.7006C12.6028 32.832 12.9606 34.8699 13.4345 36.7629C12.954 36.8548 12.4808 36.9324 12.0172 36.9947ZM22.7523 45.8936C20.6979 45.8936 18.5142 43.2569 16.9658 38.8052C18.8434 38.2687 20.7883 37.5594 22.7523 36.6955C24.716 37.5594 26.6613 38.2687 28.5385 38.8052C26.9901 43.2569 24.8068 45.8936 22.7523 45.8936ZM41.1013 35.2999C40.1767 36.9013 37.4011 37.5187 33.4871 36.9947C33.0238 36.9324 32.5507 36.8548 32.0702 36.7629C32.5441 34.8699 32.9019 32.832 33.1351 30.7006C34.8655 29.4321 36.4527 28.1023 37.8556 26.7444C40.9369 30.3113 42.1286 33.5204 41.1013 35.2999Z" fill="#27E0F6"/>
</g>
<defs>
<clipPath id="clip0_574_18589">
<rect width="44" height="48" fill="white" transform="translate(0.699951 0.706055)"/>
</clipPath>
</defs>
</svg>
