<svg width="21" height="21" viewBox="0 0 21 21" fill="none" xmlns="http://www.w3.org/2000/svg">
<path d="M19.2509 10.9207C19.2509 10.2013 19.1913 9.67627 19.0624 9.13184H10.6794V12.379H15.6C15.5009 13.186 14.9652 14.4013 13.7747 15.2179L13.758 15.3266L16.4085 17.3389L16.5921 17.3568C18.2786 15.8304 19.2509 13.5846 19.2509 10.9207Z" fill="#4285F4"/>
<path d="M10.6789 19.4765C13.0896 19.4765 15.1134 18.6987 16.5916 17.3571L13.7741 15.2181C13.0202 15.7334 12.0083 16.0931 10.6789 16.0931C8.31785 16.0931 6.31391 14.5668 5.59956 12.457L5.49485 12.4657L2.7388 14.556L2.70276 14.6542C4.17099 17.5126 7.18686 19.4765 10.6789 19.4765Z" fill="#34A853"/>
<path d="M5.60002 12.4573C5.41153 11.9128 5.30245 11.3295 5.30245 10.7267C5.30245 10.1239 5.41153 9.5406 5.5901 8.99616L5.58511 8.88021L2.79451 6.75635L2.70321 6.79891C2.09808 7.98503 1.75085 9.317 1.75085 10.7267C1.75085 12.1364 2.09808 13.4683 2.70321 14.6545L5.60002 12.4573Z" fill="#FBBC05"/>
<path d="M10.679 5.35987C12.3555 5.35987 13.4865 6.06959 14.1313 6.66269L16.6512 4.25156C15.1036 2.84184 13.0897 1.97656 10.679 1.97656C7.18689 1.97656 4.171 3.94044 2.70276 6.79875L5.58966 8.996C6.31393 6.88628 8.31789 5.35987 10.679 5.35987Z" fill="#EB4335"/>
</svg>
