<svg width="19" height="19" viewBox="0 0 19 19" fill="none" xmlns="http://www.w3.org/2000/svg">
<path d="M7.16799 12.2003C7.35685 12.36 7.56938 12.43 7.80558 12.4102C8.04097 12.3905 8.2385 12.2863 8.3982 12.0974L10.2018 9.96434L10.2945 11.0715C10.3134 11.2971 10.4172 11.4897 10.6061 11.6494C10.795 11.8091 11.0022 11.8795 11.2277 11.8606C11.4532 11.8418 11.6459 11.7379 11.8056 11.549C11.9653 11.3602 12.0357 11.153 12.0168 10.9274L11.7491 7.72886C11.7389 7.60583 11.7067 7.49745 11.6526 7.40369C11.5981 7.31038 11.5264 7.22615 11.4375 7.151C11.3487 7.07585 11.2537 7.01917 11.1526 6.98096C11.0512 6.9432 10.939 6.92947 10.8159 6.93976L7.61737 7.20741C7.39183 7.22628 7.19922 7.33015 7.03952 7.51901C6.87982 7.70788 6.80941 7.91508 6.82828 8.14062C6.84715 8.36616 6.95102 8.55878 7.13989 8.71847C7.32875 8.87817 7.53595 8.94858 7.76149 8.92971L8.86869 8.83706L7.06505 10.9701C6.90535 11.159 6.83557 11.3713 6.85571 11.607C6.87503 11.8429 6.97912 12.0406 7.16799 12.2003ZM3.78616 16.1998C2.86406 15.4201 2.14555 14.5123 1.63065 13.4764C1.11537 12.4409 0.811402 11.3695 0.718755 10.2623C0.626109 9.15513 0.7478 8.04817 1.08383 6.94144C1.41941 5.83434 1.97705 4.81974 2.75675 3.89764C3.53645 2.97554 4.44427 2.25704 5.4802 1.74213C6.51569 1.22685 7.58704 0.922883 8.69423 0.830237C9.80143 0.73759 10.9086 0.859059 12.0157 1.19464C13.1224 1.53067 14.1368 2.08853 15.0589 2.86823C15.981 3.64793 16.6997 4.55553 17.215 5.59102C17.7299 6.62695 18.0337 7.69852 18.1263 8.80571C18.219 9.91291 18.0973 11.0199 17.7612 12.1266C17.4257 13.2337 16.868 14.2483 16.0883 15.1704C15.3086 16.0925 14.4008 16.811 13.3649 17.3259C12.3294 17.8412 11.258 18.1452 10.1508 18.2378C9.04365 18.3304 7.93669 18.2088 6.82996 17.8727C5.72286 17.5371 4.70826 16.9795 3.78616 16.1998Z" fill="white"/>
</svg>
