<svg width="18" height="18" viewBox="0 0 18 18" fill="none" xmlns="http://www.w3.org/2000/svg">
<g clip-path="url(#clip0_574_12914)">
<path fill-rule="evenodd" clip-rule="evenodd" d="M5.65189 0.859273C6.5179 0.819406 6.79402 0.810547 9 0.810547C11.206 0.810547 11.4821 0.820145 12.3474 0.859273C13.2126 0.898402 13.8033 1.03646 14.3201 1.23654C14.8612 1.44104 15.3522 1.76071 15.7582 2.17415C16.1717 2.57947 16.4906 3.06969 16.6944 3.61159C16.8952 4.12838 17.0325 4.71901 17.0724 5.5828C17.1122 6.45028 17.1211 6.72639 17.1211 8.93164C17.1211 11.1376 17.1115 11.4137 17.0724 12.2797C17.0332 13.1435 16.8952 13.7342 16.6944 14.251C16.4906 14.7929 16.1711 15.284 15.7582 15.6899C15.3522 16.1033 14.8612 16.4222 14.3201 16.626C13.8033 16.8268 13.2126 16.9641 12.3488 17.004C11.4821 17.0439 11.206 17.0527 9 17.0527C6.79402 17.0527 6.5179 17.0431 5.65189 17.004C4.78811 16.9649 4.19748 16.8268 3.68068 16.626C3.13873 16.4222 2.6477 16.1028 2.24177 15.6899C1.82862 15.2843 1.50889 14.7935 1.30489 14.2517C1.10482 13.7349 0.9675 13.1443 0.927633 12.2805C0.887766 11.413 0.878906 11.1369 0.878906 8.93164C0.878906 6.72566 0.888504 6.44954 0.927633 5.58427C0.966762 4.71901 1.10482 4.12838 1.30489 3.61159C1.50919 3.06975 1.82916 2.57896 2.24251 2.17341C2.64786 1.76035 3.1384 1.44063 3.67995 1.23654C4.19674 1.03646 4.78737 0.899141 5.65116 0.859273H5.65189ZM12.2817 2.32107C11.4253 2.28194 11.1683 2.27382 9 2.27382C6.83167 2.27382 6.57475 2.28194 5.71834 2.32107C4.92616 2.35725 4.49648 2.4894 4.21003 2.60088C3.83129 2.74854 3.56034 2.92351 3.27611 3.20775C3.00667 3.46987 2.79931 3.78898 2.66924 4.14167C2.55776 4.42813 2.42561 4.8578 2.38943 5.64998C2.3503 6.50639 2.34218 6.76331 2.34218 8.93164C2.34218 11.1 2.3503 11.3569 2.38943 12.2133C2.42561 13.0055 2.55776 13.4352 2.66924 13.7216C2.79918 14.0738 3.00663 14.3934 3.27611 14.6555C3.5382 14.925 3.85787 15.1325 4.21003 15.2624C4.49648 15.3739 4.92616 15.506 5.71834 15.5422C6.57475 15.5813 6.83093 15.5895 9 15.5895C11.1691 15.5895 11.4253 15.5813 12.2817 15.5422C13.0738 15.506 13.5035 15.3739 13.79 15.2624C14.1687 15.1147 14.4397 14.9398 14.7239 14.6555C14.9934 14.3934 15.2008 14.0738 15.3308 13.7216C15.4422 13.4352 15.5744 13.0055 15.6106 12.2133C15.6497 11.3569 15.6578 11.1 15.6578 8.93164C15.6578 6.76331 15.6497 6.50639 15.6106 5.64998C15.5744 4.8578 15.4422 4.42813 15.3308 4.14167C15.1831 3.76293 15.0081 3.49198 14.7239 3.20775C14.4618 2.93833 14.1426 2.73097 13.79 2.60088C13.5035 2.4894 13.0738 2.35725 12.2817 2.32107ZM7.96272 11.4352C8.54201 11.6763 9.18706 11.7088 9.78769 11.5272C10.3883 11.3456 10.9073 10.9611 11.2559 10.4394C11.6045 9.91767 11.7612 9.29109 11.6992 8.66668C11.6372 8.04226 11.3603 7.45875 10.9158 7.0158C10.6325 6.73265 10.2899 6.51585 9.91276 6.38099C9.53559 6.24613 9.13321 6.19657 8.73458 6.23589C8.33596 6.27521 7.95101 6.40242 7.60746 6.60837C7.2639 6.81431 6.97028 7.09387 6.74773 7.42691C6.52518 7.75996 6.37924 8.1382 6.32042 8.53442C6.2616 8.93063 6.29136 9.33496 6.40755 9.71829C6.52375 10.1016 6.7235 10.4544 6.99241 10.7513C7.26132 11.0482 7.59271 11.2817 7.96272 11.4352ZM6.04835 5.97999C6.43597 5.59238 6.89613 5.2849 7.40258 5.07513C7.90902 4.86535 8.45183 4.75738 9 4.75738C9.54817 4.75738 10.091 4.86535 10.5974 5.07513C11.1039 5.2849 11.564 5.59238 11.9516 5.97999C12.3393 6.36761 12.6467 6.82778 12.8565 7.33422C13.0663 7.84066 13.1743 8.38347 13.1743 8.93164C13.1743 9.47981 13.0663 10.0226 12.8565 10.5291C12.6467 11.0355 12.3393 11.4957 11.9516 11.8833C11.1688 12.6661 10.1071 13.1059 9 13.1059C7.89292 13.1059 6.83118 12.6661 6.04835 11.8833C5.26553 11.1005 4.82574 10.0387 4.82574 8.93164C4.82574 7.82456 5.26553 6.76282 6.04835 5.97999ZM14.1 5.37903C14.1961 5.28842 14.273 5.17946 14.3262 5.0586C14.3794 4.93774 14.4078 4.80743 14.4097 4.6754C14.4116 4.54336 14.387 4.41229 14.3374 4.28993C14.2877 4.16757 14.2141 4.05641 14.1207 3.96304C14.0273 3.86967 13.9162 3.79598 13.7938 3.74634C13.6714 3.69669 13.5404 3.67211 13.4083 3.67403C13.2763 3.67596 13.146 3.70435 13.0251 3.75754C12.9043 3.81073 12.7953 3.88763 12.7047 3.98368C12.5285 4.17049 12.432 4.41862 12.4357 4.6754C12.4395 4.93218 12.5432 5.17739 12.7247 5.35898C12.9063 5.54057 13.1515 5.64424 13.4083 5.64799C13.6651 5.65173 13.9132 5.55525 14.1 5.37903Z" fill="white"/>
</g>
<defs>
<clipPath id="clip0_574_12914">
<rect width="17.7188" height="17.7188" fill="white" transform="translate(0.140625 0.0722656)"/>
</clipPath>
</defs>
</svg>
