<svg width="38" height="42" viewBox="0 0 38 42" fill="none" xmlns="http://www.w3.org/2000/svg">
<path d="M36.0863 28.0079C37.4591 28.0079 37.9993 29.2998 37.9993 30.8933C37.9993 32.4869 37.4591 33.7787 36.0863 33.7787C34.7136 33.7787 33.6007 32.4869 33.6007 30.8933C33.6007 29.2998 34.7136 28.0079 36.0863 28.0079ZM19.0003 11.9892C20.2033 11.9892 21.3793 11.6376 22.3795 10.9789C23.3798 10.3202 24.1594 9.38401 24.6198 8.28864C25.0801 7.19327 25.2006 5.98796 24.9659 4.82512C24.7312 3.66228 24.1519 2.59414 23.3012 1.75578C22.4506 0.917419 21.3668 0.346488 20.1869 0.115186C19.007 -0.116116 17.784 0.00259875 16.6726 0.456318C15.5612 0.910037 14.6112 1.67838 13.9429 2.66419C13.2745 3.65 12.9178 4.809 12.9178 5.99462C12.9178 6.78184 13.0751 7.56136 13.3808 8.28865C13.6865 9.01595 14.1345 9.67679 14.6993 10.2334C15.2641 10.7901 15.9346 11.2317 16.6726 11.5329C17.4106 11.8342 18.2015 11.9892 19.0003 11.9892ZM32.3923 19.2139C29.2377 16.001 24.4153 13.9406 19.0015 13.9406C13.5874 13.9406 8.76411 16.0007 5.60952 19.2139C11.4097 20.0587 15.9024 21.7169 18.9993 24.1498C22.0951 21.7177 26.5864 20.0599 32.3923 19.2139ZM19.9474 42C23.9345 38.72 30.2683 37.4304 35.3505 36.9398C35.4742 36.9304 35.5896 36.875 35.6733 36.7847C35.757 36.6944 35.8026 36.5761 35.8009 36.4539V35.6316C33.5158 35.4727 31.7048 33.4122 31.7048 30.8937C31.7048 28.3753 33.5158 26.3149 35.8009 26.156V21.2406C35.8012 21.1721 35.7869 21.1042 35.7589 21.0415C35.731 20.9787 35.69 20.9224 35.6387 20.8762C35.5873 20.8299 35.5267 20.7948 35.4607 20.7731C35.3948 20.7514 35.3249 20.7435 35.2557 20.75C30.1877 21.2406 23.9108 22.5395 19.9474 25.7915V42ZM6.29373 30.8937C6.29373 33.4122 4.48269 35.4727 2.19761 35.6316V36.4539C2.19593 36.5761 2.24157 36.6944 2.32523 36.7847C2.4089 36.875 2.52431 36.9304 2.64799 36.9398C7.73018 37.4304 14.064 38.72 18.0511 42V25.7915C14.0877 22.5395 7.8108 21.2406 2.74282 20.75C2.67358 20.7435 2.60373 20.7514 2.53777 20.7731C2.47181 20.7948 2.4112 20.8299 2.35984 20.8762C2.30848 20.9224 2.26751 20.9787 2.23957 21.0415C2.21163 21.1042 2.19733 21.1721 2.19761 21.2406V26.156C4.48269 26.3149 6.29373 28.3753 6.29373 30.8937ZM1.91218 33.7787C3.28494 33.7787 4.39779 32.4869 4.39779 30.8933C4.39779 29.2998 3.28494 28.0079 1.91218 28.0079C0.539432 28.0079 -0.000732422 29.2998 -0.000732422 30.8933C-0.000732422 32.4869 0.539432 33.7787 1.91218 33.7787Z" fill="#27E0F6"/>
</svg>
