<svg width="16" height="18" viewBox="0 0 16 18" fill="none" xmlns="http://www.w3.org/2000/svg">
<g clip-path="url(#clip0_574_12918)">
<path d="M3.62663 15.5761H0.412341V5.22514H3.62663V15.5761ZM2.01776 3.81317C0.989931 3.81317 0.15625 2.96184 0.15625 1.93402C0.15625 1.44031 0.352372 0.966833 0.701473 0.617733C1.05057 0.268632 1.52405 0.0725098 2.01776 0.0725098C2.51146 0.0725098 2.98494 0.268632 3.33404 0.617733C3.68314 0.966833 3.87926 1.44031 3.87926 1.93402C3.87926 2.96184 3.04524 3.81317 2.01776 3.81317ZM15.6567 15.5761H12.4493V10.5373C12.4493 9.33644 12.4251 7.79643 10.7782 7.79643C9.10699 7.79643 8.8509 9.10111 8.8509 10.4508V15.5761H5.64006V5.22514H8.72285V6.6371H8.76784C9.19697 5.82384 10.2452 4.96558 11.8091 4.96558C15.0621 4.96558 15.6602 7.10775 15.6602 9.89015V15.5761H15.6567Z" fill="white"/>
</g>
<defs>
<clipPath id="clip0_574_12918">
<rect width="15.5039" height="17.7188" fill="white" transform="translate(0.15625 0.0722656)"/>
</clipPath>
</defs>
</svg>
