<svg width="14" height="16" viewBox="0 0 14 16" fill="none" xmlns="http://www.w3.org/2000/svg">
<g clip-path="url(#clip0_574_20210)">
<path d="M1.34837 7.55445H9.21214L6.96774 5.31041C6.79366 5.1365 6.79366 4.85443 6.96774 4.68053C7.14183 4.50662 7.42372 4.50644 7.59762 4.68053L10.6022 7.6847C10.6048 7.68738 10.6064 7.69058 10.6091 7.69326C10.6267 7.71179 10.6431 7.73121 10.6574 7.75241C10.6659 7.76506 10.672 7.77878 10.6791 7.7925C10.6855 7.80462 10.693 7.8162 10.6982 7.82903C10.705 7.84525 10.7091 7.86217 10.7137 7.87875C10.7171 7.88997 10.7214 7.90066 10.7237 7.91224C10.7294 7.94111 10.7326 7.97033 10.7326 7.99955L10.7321 8.00436C10.7317 8.03181 10.7292 8.05942 10.7239 8.08651C10.7208 8.10165 10.7153 8.11573 10.7108 8.13034C10.7069 8.14335 10.7039 8.15671 10.6987 8.16954C10.6914 8.18754 10.6814 8.20393 10.672 8.22068C10.6672 8.22905 10.6636 8.23796 10.6581 8.24616C10.6414 8.27128 10.6223 8.29463 10.6009 8.31601L7.59798 11.3191C7.51103 11.4061 7.39699 11.4495 7.28295 11.4495C7.16891 11.4495 7.05505 11.4061 6.96792 11.3191C6.79384 11.1452 6.79384 10.8631 6.96792 10.6892L9.21179 8.44537H1.34837C1.1023 8.44537 0.902908 8.24598 0.902908 7.99991C0.902908 7.75384 1.1023 7.55445 1.34837 7.55445ZM4.61893 11.5452C4.865 11.5452 5.06439 11.7446 5.06439 11.9907C5.06439 13.71 6.46331 15.1089 8.1826 15.1089H9.41189C11.1312 15.1089 12.5301 13.71 12.5301 11.9907V4.00913C12.5301 2.28984 11.1312 0.890918 9.41189 0.890918H8.1826C6.46331 0.890918 5.06439 2.28984 5.06439 4.00913C5.06439 4.2552 4.865 4.45459 4.61893 4.45459C4.37286 4.45459 4.17347 4.2552 4.17347 4.00913C4.17347 1.79859 5.97205 0 8.1826 0H9.41189C11.6224 0 13.421 1.79859 13.421 4.00913V11.9909C13.421 14.2014 11.6224 16 9.41189 16H8.1826C5.97205 16 4.17347 14.2014 4.17347 11.9909C4.17347 11.7448 4.37286 11.5452 4.61893 11.5452Z" fill="#0E0F0F"/>
</g>
<defs>
<clipPath id="clip0_574_20210">
<rect width="12.8" height="16" fill="white" transform="matrix(-1 0 0 1 13.5636 0)"/>
</clipPath>
</defs>
</svg>
