<svg width="42" height="38" viewBox="0 0 42 38" fill="none" xmlns="http://www.w3.org/2000/svg">
<path d="M41.787 17.8112C41.5266 17.5508 41.0927 17.5508 40.8323 17.8112L40.0512 18.6357V18.5055C39.8776 8.22065 31.372 0.0188015 21.0871 0.14899C12.8853 0.279178 5.81171 5.70368 3.46832 13.5584C3.46832 13.6452 3.42493 13.6886 3.42493 13.7753C3.42493 14.0791 3.64191 14.3395 3.90228 14.4263C4.24945 14.5131 4.64002 14.3395 4.72681 13.9489C6.85321 6.615 13.4494 1.62445 21.0437 1.49427C30.5908 1.36408 38.4455 8.95838 38.6191 18.5055V18.6357L37.7946 17.8112C37.5342 17.5508 37.1002 17.5508 36.8399 17.8112C36.7097 17.9414 36.6663 18.1149 36.6663 18.2885C36.6663 18.4621 36.7531 18.6357 36.8833 18.7659L38.8795 20.7187C39.1399 20.9791 39.5738 20.9791 39.8342 20.7187L41.787 18.7225C42.0908 18.5055 42.0474 18.0715 41.787 17.8112Z" fill="#27E0F6"/>
<path d="M38.8368 23.1924C38.4896 23.1057 38.099 23.2792 38.0122 23.6698C35.8858 31.0037 29.2896 35.9943 21.6953 36.1245C12.1482 36.2547 4.29352 28.6603 4.11994 19.1132V18.983L4.94446 19.8076C5.20484 20.0679 5.6388 20.0679 5.89917 19.8076C6.15955 19.5472 6.15955 19.1132 5.89917 18.8528L3.90296 16.9C3.72937 16.7264 3.55579 16.6396 3.3822 16.6396C3.20862 16.6396 3.03504 16.7264 2.90485 16.8566L0.952027 18.8528C0.821838 18.983 0.778442 19.1566 0.778442 19.3302C0.778442 19.5038 0.865234 19.6774 0.995423 19.8076C1.2558 20.0679 1.68976 20.0679 1.95013 19.8076L2.73126 18.983V19.1132C2.90485 29.3981 11.4105 37.5999 21.6953 37.4697C29.8972 37.3396 36.9707 31.9584 39.3141 24.0604C39.4009 23.6698 39.1839 23.3226 38.8368 23.1924Z" fill="#27E0F6"/>
<path d="M21.3922 32.3486C28.8997 32.3486 34.9752 26.2731 34.9752 18.809C34.9752 11.3015 28.8997 5.22607 21.3922 5.22607C13.9281 5.22607 7.85266 11.3015 7.85266 18.809C7.85266 26.3165 13.8847 32.3486 21.3922 32.3486ZM21.3922 10.1298C23.4752 10.1298 25.1243 11.8223 25.1243 13.8619C25.1243 15.9449 23.4318 17.5939 21.3922 17.5939C19.3526 17.5939 17.6602 15.9015 17.6602 13.8619C17.6168 11.7789 19.3092 10.1298 21.3922 10.1298ZM15.3602 21.4996C15.9243 19.9373 17.096 18.7656 18.5715 18.2015C19.396 18.7222 20.3507 19.0694 21.3922 19.0694C22.4337 19.0694 23.4318 18.7656 24.213 18.2015C25.6884 18.7656 26.8601 19.9807 27.4243 21.4996C27.8148 22.6279 28.0752 23.7996 28.162 24.9713C28.2054 25.5354 27.7714 25.9694 27.2073 25.9694H15.4904C14.9696 25.9694 14.4923 25.5354 14.5356 24.9713C14.7092 23.7996 14.9262 22.6279 15.3602 21.4996Z" fill="#27E0F6"/>
</svg>
