<svg width="42" height="27" viewBox="0 0 42 27" fill="none" xmlns="http://www.w3.org/2000/svg">
<path d="M4.74203 2.84375H2.03235V4.19859H4.74203V2.84375Z" fill="#27E0F6"/>
<path d="M2.70882 6.90771H-0.000854492V8.26255H2.70882V6.90771Z" fill="#27E0F6"/>
<path d="M4.74203 10.9727H2.03235V12.3275H4.74203V10.9727Z" fill="#27E0F6"/>
<path d="M41.9991 25.1982H-0.000854492V26.5531H41.9991V25.1982Z" fill="#27E0F6"/>
<path d="M32.5133 19.7789L41.9971 10.9725L32.5133 2.16602V5.55311H25.0616V16.3918H32.5133V19.7789Z" fill="#27E0F6"/>
<path d="M6.59338 9.74477C6.62165 9.77987 6.65665 9.80897 6.69632 9.83038C6.73598 9.85178 6.77952 9.86505 6.82438 9.86941C6.86915 9.87394 6.91437 9.86951 6.95741 9.85636C7.00044 9.84322 7.04043 9.82164 7.07503 9.79287L10.7405 6.73838L12.0798 7.1848L9.8958 11.1138C9.63339 11.5818 9.54806 12.1286 9.65539 12.6543C9.76272 13.18 10.0555 13.6496 10.4804 13.9773L14.7414 17.2912L13.5119 23.4368C13.5018 23.486 13.5028 23.5369 13.5149 23.5858C13.527 23.6346 13.5498 23.6801 13.5816 23.719C13.6135 23.7579 13.6536 23.7893 13.699 23.8108C13.7445 23.8322 13.7942 23.8433 13.8445 23.8432H16.0671C16.139 23.8431 16.209 23.8202 16.2669 23.7777C16.3249 23.7352 16.3678 23.6753 16.3895 23.6068L18.3541 17.4362C18.4524 17.1319 18.4571 16.8051 18.3676 16.4981C18.2781 16.1911 18.0985 15.918 17.8521 15.7142L14.9121 13.2646L16.185 10.9804L17.5743 12.9266C17.7424 13.1632 17.9717 13.3496 18.2375 13.4659C18.5034 13.5823 18.7958 13.6241 19.0836 13.5871L23.4123 13.0452C23.4947 13.0349 23.5704 12.9947 23.6251 12.9322C23.6798 12.8698 23.7097 12.7895 23.7091 12.7064V10.8029C23.7091 10.7131 23.6734 10.6269 23.6099 10.5634C23.5463 10.4999 23.4602 10.4642 23.3703 10.4642H19.7895L19.2008 8.99351C18.7881 7.96267 18.1259 7.05045 17.2736 6.3387L16.3584 5.57593C15.2244 4.63055 13.8496 4.01952 12.388 3.81125L10.683 3.56738C10.4456 3.53355 10.2038 3.55315 9.97498 3.62476C9.74621 3.69637 9.53631 3.81818 9.36064 3.98129L5.35777 7.69693C5.29497 7.75506 5.25651 7.8348 5.2501 7.92012C5.24369 8.00545 5.26981 8.09004 5.32322 8.1569L6.59338 9.74477Z" fill="#27E0F6"/>
<path d="M3.0476 18.7626H8.81447C9.0462 18.7618 9.27504 18.7111 9.48544 18.6139C9.69584 18.5168 9.88286 18.3755 10.0338 18.1997L11.4998 16.4906L9.64566 15.049C9.3096 14.7875 9.02227 14.4687 8.79685 14.1074L7.92705 15.5571L3.02389 15.8633C2.93774 15.8686 2.85689 15.9067 2.79785 15.9696C2.7388 16.0326 2.70601 16.1157 2.70618 16.202V18.4239C2.70618 18.4686 2.71503 18.5129 2.73222 18.5542C2.74941 18.5955 2.7746 18.6329 2.80634 18.6644C2.83808 18.6959 2.87574 18.7208 2.91715 18.7376C2.95855 18.7545 3.00289 18.763 3.0476 18.7626Z" fill="#27E0F6"/>
<path d="M17.8808 6.07479C19.2954 6.07479 20.4421 4.92805 20.4421 3.51347C20.4421 2.09889 19.2954 0.952148 17.8808 0.952148C16.4662 0.952148 15.3195 2.09889 15.3195 3.51347C15.3195 4.92805 16.4662 6.07479 17.8808 6.07479Z" fill="#27E0F6"/>
</svg>
