<svg width="22" height="13" viewBox="0 0 22 13" fill="none" xmlns="http://www.w3.org/2000/svg">
<path d="M0.916748 5.55854C0.482684 5.55854 0.130806 5.91042 0.130806 6.34448C0.130806 6.77855 0.482684 7.13042 0.916748 7.13042L0.916748 5.55854ZM21.383 6.90023C21.69 6.5933 21.69 6.09567 21.383 5.78874L16.3813 0.787031C16.0744 0.480101 15.5768 0.480101 15.2698 0.787031C14.9629 1.09396 14.9629 1.59159 15.2698 1.89852L19.7158 6.34448L15.2698 10.7904C14.9629 11.0974 14.9629 11.595 15.2698 11.9019C15.5768 12.2089 16.0744 12.2089 16.3813 11.9019L21.383 6.90023ZM0.916748 7.13042L20.8273 7.13043L20.8273 5.55854L0.916748 5.55854L0.916748 7.13042Z" fill="#27E0F6"/>
</svg>
