<svg width="18" height="16" viewBox="0 0 18 16" fill="none" xmlns="http://www.w3.org/2000/svg">
<g clip-path="url(#clip0_574_20215)">
<path d="M3.4897 12.9237C3.4897 12.9493 3.48636 12.974 3.47992 12.9976C3.5604 13.0863 3.6431 13.173 3.7278 13.2577C5.07329 14.6032 6.93234 15.4353 8.98547 15.4353C9.53283 15.4353 10.0662 15.3762 10.5786 15.2643L10.5891 15.2619C11.0088 15.1696 11.4148 15.042 11.8034 14.8828C11.3979 14.3855 11.1544 13.7503 11.1544 13.0585C11.1544 12.2608 11.4781 11.538 12.0008 11.0153C12.2785 10.7377 12.6122 10.5162 12.9839 10.3697C12.8405 10.2886 12.6896 10.2192 12.5326 10.163C12.2276 10.0538 11.8972 9.994 11.5515 9.994H11.1064C10.7974 10.1581 10.465 10.2879 10.1151 10.3777C9.75115 10.4713 9.37209 10.5211 8.9857 10.5211C8.5993 10.5211 8.22024 10.4713 7.85631 10.3777C7.50637 10.2879 7.174 10.1581 6.86475 9.994H6.41944C5.61998 9.994 4.89299 10.3179 4.36386 10.8406L4.35052 10.8548C3.8194 11.3859 3.4897 12.1185 3.4897 12.9237ZM13.7614 11.5C13.7614 11.3442 13.8879 11.2177 14.0437 11.2177C14.1996 11.2177 14.3261 11.3442 14.3261 11.5V12.7759H15.6022C15.758 12.7759 15.8845 12.9024 15.8845 13.0582C15.8845 13.2141 15.758 13.3406 15.6022 13.3406H14.3261V14.6167C14.3261 14.7726 14.1996 14.8991 14.0437 14.8991C13.8879 14.8991 13.7614 14.7726 13.7614 14.6167V13.3406H12.4855C12.3296 13.3406 12.2031 13.2141 12.2031 13.0582C12.2031 12.9024 12.3296 12.7759 12.4855 12.7759H13.7614V11.5ZM12.2349 15.3112C11.7494 15.5276 11.2391 15.697 10.7105 15.8133L10.6991 15.8155C10.1464 15.936 9.57285 16 8.98547 16C6.77649 16 4.77605 15.1045 3.32852 13.657C1.88098 12.2094 0.985474 10.209 0.985474 8C0.985474 5.79102 1.88098 3.79057 3.32852 2.34304C4.77605 0.895509 6.77649 0 8.98547 0C11.1945 0 13.1949 0.895509 14.6424 2.34304C16.09 3.79057 16.9855 5.79102 16.9855 8C16.9855 8.59115 16.9208 9.1683 16.7987 9.72366C16.6825 10.2534 16.513 10.7639 16.2967 11.2494C16.6947 11.7446 16.9332 12.3739 16.9332 13.0585C16.9332 13.8562 16.6095 14.5787 16.0869 15.1014C15.5642 15.6241 14.8416 15.9478 14.0439 15.9478C13.3594 15.9478 12.73 15.7092 12.2349 15.3112ZM15.8683 10.8179C16.0277 10.4293 16.1551 10.0231 16.2474 9.60338C16.3608 9.08826 16.4208 8.55113 16.4208 8C16.4208 5.94687 15.5886 4.08782 14.2431 2.74233C12.8977 1.39684 11.0386 0.564695 8.98547 0.564695C6.93234 0.564695 5.07329 1.39684 3.7278 2.74233C2.38232 4.08782 1.55017 5.94687 1.55017 8C1.55017 9.63317 2.07663 11.1432 2.96924 12.3699C3.08841 11.6294 3.44212 10.9647 3.95124 10.4555L3.96791 10.4402C4.60019 9.81592 5.46724 9.4293 6.41944 9.4293H6.93501C6.99059 9.4293 7.04217 9.44531 7.08596 9.4731C7.37187 9.62917 7.67756 9.75144 7.99548 9.83304C8.30873 9.91352 8.64065 9.95642 8.9857 9.95642C9.33074 9.95642 9.66266 9.91352 9.97591 9.83304C10.2996 9.74989 10.6104 9.62472 10.9005 9.46465C10.9437 9.44108 10.9901 9.42997 11.0362 9.42997L11.5515 9.4293C11.9595 9.4293 12.3541 9.50133 12.7225 9.63339C13.0851 9.76345 13.4208 9.95176 13.7174 10.1872C13.8245 10.1752 13.9335 10.169 14.0439 10.169C14.7356 10.169 15.371 10.4124 15.8683 10.8179ZM15.6876 11.4146C15.2672 10.9942 14.6858 10.7337 14.0439 10.7337C13.4021 10.7337 12.8205 10.9942 12.4001 11.4146C11.9797 11.835 11.7191 12.4166 11.7191 13.0585C11.7191 13.7003 11.9797 14.2817 12.4001 14.7021C12.8205 15.1225 13.4021 15.3831 14.0439 15.3831C14.6858 15.3831 15.2672 15.1225 15.6876 14.7021C16.108 14.2817 16.3685 13.7003 16.3685 13.0585C16.3685 12.4166 16.108 11.835 15.6876 11.4146ZM8.9857 2.78035C9.87209 2.78035 10.6751 3.13984 11.256 3.72076C11.837 4.30169 12.1965 5.10471 12.1965 5.99133C12.1965 6.87683 11.8367 7.67963 11.2554 8.26078C10.6751 8.84237 9.87209 9.20187 8.9857 9.20187C8.10019 9.20187 7.29717 8.84215 6.71602 8.26078C6.13443 7.68052 5.77471 6.87772 5.77471 5.99133C5.77471 5.10471 6.13421 4.30169 6.71513 3.72076C7.29606 3.13984 8.09908 2.78035 8.9857 2.78035ZM10.8567 4.12005C10.3781 3.6414 9.71624 3.34504 8.9857 3.34504C8.25493 3.34504 7.59308 3.6414 7.11442 4.12005C6.63576 4.59871 6.33941 5.26056 6.33941 5.99133C6.33941 6.72188 6.63598 7.3835 7.11464 7.86216C7.59241 8.34126 8.25448 8.63717 8.9857 8.63717C9.71624 8.63717 10.3781 8.34082 10.8567 7.86216C11.3359 7.38439 11.6318 6.72254 11.6318 5.99133C11.6318 5.26056 11.3354 4.59871 10.8567 4.12005Z" fill="#0E0F0F"/>
</g>
<defs>
<clipPath id="clip0_574_20215">
<rect width="17" height="16" fill="white" transform="translate(0.563599)"/>
</clipPath>
</defs>
</svg>
