<svg width="21" height="16" viewBox="0 0 21 16" fill="none" xmlns="http://www.w3.org/2000/svg">
<path d="M1 6.82617C0.447715 6.82617 4.82823e-08 7.27389 0 7.82617C-4.82823e-08 8.37846 0.447715 8.82617 1 8.82617L1 6.82617ZM20.3341 8.53328C20.7246 8.14276 20.7246 7.50959 20.3341 7.11907L13.9701 0.755105C13.5796 0.364581 12.9464 0.364581 12.5559 0.755105C12.1654 1.14563 12.1654 1.77879 12.5559 2.16932L18.2127 7.82617L12.5559 13.483C12.1654 13.8736 12.1654 14.5067 12.5559 14.8972C12.9464 15.2878 13.5796 15.2878 13.9701 14.8972L20.3341 8.53328ZM1 8.82617L19.627 8.82617L19.627 6.82617L1 6.82617L1 8.82617Z" fill="#0E0F0F"/>
</svg>
