<svg width="539" height="538" viewBox="0 0 539 538" fill="none" xmlns="http://www.w3.org/2000/svg">
<path d="M514.473 248.385C508.834 220.807 498.935 193.886 487.164 169.138C466.871 126.442 433.622 90.9882 391.088 69.9417C286.717 18.2939 211.397 39.8138 170.509 81.7777C129.621 123.742 141.457 195.833 97.3413 227.037C53.2254 258.241 22.0215 272.229 19.8695 329.257C17.7176 386.285 45.6934 429.324 90.8853 443.312C136.077 457.3 203.865 502.492 339.44 476.668C475.016 450.844 508.372 378.753 516.98 327.105C521.284 301.119 519.799 274.456 514.473 248.385Z" fill="#27E0F6"/>
<path opacity="0.7" d="M514.473 248.385C508.834 220.807 498.935 193.886 487.164 169.138C466.871 126.442 433.622 90.9882 391.088 69.9417C286.717 18.2939 211.397 39.8138 170.509 81.7777C129.621 123.742 141.457 195.833 97.3413 227.037C53.2254 258.241 22.0215 272.229 19.8695 329.257C17.7176 386.285 45.6934 429.324 90.8853 443.312C136.077 457.3 203.865 502.492 339.44 476.668C475.016 450.844 508.372 378.753 516.98 327.105C521.284 301.119 519.799 274.456 514.473 248.385Z" fill="white"/>
<path d="M196.676 90.9438H186.927V134.145H196.676V90.9438Z" fill="#C9C9C9" stroke="#263238" stroke-width="1.076" stroke-linecap="round" stroke-linejoin="round"/>
<path d="M196.676 97.4429H186.927V101.661H196.676V97.4429Z" fill="white" stroke="#263238" stroke-width="1.076" stroke-linecap="round" stroke-linejoin="round"/>
<path d="M196.676 124.246H186.927V128.464H196.676V124.246Z" fill="white" stroke="#263238" stroke-width="1.076" stroke-linecap="round" stroke-linejoin="round"/>
<path d="M208.05 90.9438H194.406V134.145H208.05V90.9438Z" fill="#878787" stroke="#263238" stroke-width="1.076" stroke-linecap="round" stroke-linejoin="round"/>
<path d="M207.081 90.9438H197.332V134.145H207.081V90.9438Z" fill="#C9C9C9" stroke="#263238" stroke-width="1.076" stroke-linecap="round" stroke-linejoin="round"/>
<path d="M207.081 97.4429H197.332V101.661H207.081V97.4429Z" fill="white" stroke="#263238" stroke-width="1.076" stroke-linecap="round" stroke-linejoin="round"/>
<path d="M207.081 124.246H197.332V128.464H207.081V124.246Z" fill="white" stroke="#263238" stroke-width="1.076" stroke-linecap="round" stroke-linejoin="round"/>
<path d="M218.444 90.9438H204.8V134.145H218.444V90.9438Z" fill="#878787" stroke="#263238" stroke-width="1.076" stroke-linecap="round" stroke-linejoin="round"/>
<path d="M217.475 90.9438H207.727V134.145H217.475V90.9438Z" fill="#C9C9C9" stroke="#263238" stroke-width="1.076" stroke-linecap="round" stroke-linejoin="round"/>
<path d="M217.475 97.4429H207.727V101.661H217.475V97.4429Z" fill="white" stroke="#263238" stroke-width="1.076" stroke-linecap="round" stroke-linejoin="round"/>
<path d="M217.475 124.246H207.727V128.464H217.475V124.246Z" fill="white" stroke="#263238" stroke-width="1.076" stroke-linecap="round" stroke-linejoin="round"/>
<path d="M228.838 90.9438H215.194V134.145H228.838V90.9438Z" fill="#C9C9C9" stroke="#263238" stroke-width="1.076" stroke-linecap="round" stroke-linejoin="round"/>
<path d="M237.725 134.587H260.622L266.713 129.078H237.725V134.587Z" fill="white" stroke="#263238" stroke-width="1.076" stroke-linecap="round" stroke-linejoin="round"/>
<path d="M264.12 134.866L263.388 133.607L237.252 133.553L238.006 134.866H264.12Z" fill="white" stroke="#263238" stroke-width="1.076" stroke-linecap="round" stroke-linejoin="round"/>
<path d="M224.469 91.843L216.03 96.7231L237.657 134.121L246.096 129.241L224.469 91.843Z" fill="#C9C9C9" stroke="#263238" stroke-width="1.076" stroke-linecap="round" stroke-linejoin="round"/>
<path d="M227.725 97.4543L219.286 102.334L221.398 105.986L229.837 101.106L227.725 97.4543Z" fill="white" stroke="#263238" stroke-width="1.076" stroke-linecap="round" stroke-linejoin="round"/>
<path d="M241.151 120.655L232.712 125.535L234.823 129.186L243.262 124.306L241.151 120.655Z" fill="white" stroke="#263238" stroke-width="1.076" stroke-linecap="round" stroke-linejoin="round"/>
<path d="M266.563 129.454L245.871 129.401L224.244 91.999L244.935 92.0528L266.563 129.454Z" fill="#C9C9C9" stroke="#263238" stroke-width="1.076" stroke-linecap="round" stroke-linejoin="round"/>
<path d="M277.838 112.711C277.838 112.711 274.072 111.366 272.996 105.448C271.92 99.5304 270.037 91.1915 272.189 89.3085C274.341 87.4255 278.376 86.3495 278.914 90.1155C279.452 93.8815 278.645 101.144 279.452 102.758C280.259 104.372 282.949 103.296 282.949 100.068C282.949 94.753 280.797 89.3085 281.561 83.9285C282.637 76.4934 290.169 75.6756 290.976 83.9285C291.428 88.4907 291.557 93.1498 291.557 97.7335C291.557 99.6165 294.785 100.693 294.516 96.1195C294.323 92.8916 296.668 89.1256 299.896 90.2016C303.124 91.2776 300.434 105.535 299.358 107.955C298.282 110.376 291.557 110.828 291.557 110.828V117.015L283.487 117.284L283.218 111.097C281.575 112.047 279.733 112.6 277.838 112.711Z" fill="#27E0F6" stroke="#263238" stroke-width="1.076" stroke-linecap="round" stroke-linejoin="round"/>
<path d="M285.102 100.918C285.198 102.263 285.263 103.07 285.263 103.07" stroke="#263238" stroke-width="1.076" stroke-linecap="round" stroke-linejoin="round"/>
<path d="M285.639 80.0547C285.639 80.0547 283.875 81.2813 284.004 84.9612C284.09 87.1993 284.52 93.397 284.854 97.927" stroke="#263238" stroke-width="1.076" stroke-linecap="round" stroke-linejoin="round"/>
<path d="M288.674 92.7407L288.954 101.747" stroke="#263238" stroke-width="1.076" stroke-linecap="round" stroke-linejoin="round"/>
<path d="M292.613 107.601C291.989 107.698 291.36 107.752 290.73 107.762" stroke="#263238" stroke-width="1.076" stroke-linecap="round" stroke-linejoin="round"/>
<path d="M298.229 92.4717C297.608 93.6495 297.279 94.9597 297.272 96.2915C297.272 98.4435 297.412 104.48 296.045 106.115C295.711 106.483 295.305 106.776 294.851 106.976" stroke="#263238" stroke-width="1.076" stroke-linecap="round" stroke-linejoin="round"/>
<path d="M274.88 104.577C275.203 106.194 275.979 107.687 277.118 108.881C277.791 109.42 278.622 109.724 279.485 109.747C280.347 109.771 281.193 109.512 281.895 109.01" stroke="#263238" stroke-width="1.076" stroke-linecap="round" stroke-linejoin="round"/>
<path d="M274.621 90.0181C274.621 90.0181 271.899 90.0181 272.846 94.7847C273.255 96.7968 273.631 99.2716 274.115 101.607" stroke="#263238" stroke-width="1.076" stroke-linecap="round" stroke-linejoin="round"/>
<path d="M284.855 108.16L285.404 114.024" stroke="#263238" stroke-width="1.076" stroke-linecap="round" stroke-linejoin="round"/>
<path d="M298.82 114.595L297.841 122.622L297.174 128.088L296.399 134.447H277.042L276.267 128.088L275.6 122.622L274.621 114.595H298.82Z" fill="white" stroke="#263238" stroke-width="1.076" stroke-linecap="round" stroke-linejoin="round"/>
<path d="M297.841 122.622L297.174 128.088H276.268L275.6 122.622H297.841Z" fill="#27E0F6" stroke="#263238" stroke-width="1.076" stroke-linecap="round" stroke-linejoin="round"/>
<path d="M309.452 134.446H185.206V142.678H309.452V134.446Z" fill="white" stroke="#263238" stroke-width="1.076" stroke-linecap="round" stroke-linejoin="round"/>
<path d="M309.451 134.446H280.808V142.678H309.451V134.446Z" fill="white" stroke="#263238" stroke-width="1.076" stroke-linecap="round" stroke-linejoin="round"/>
<path d="M278.021 142.71C291.332 147.617 288.932 156.892 288.932 156.892H301.532V142.71H278.021Z" fill="#919191" stroke="#263238" stroke-width="1.076" stroke-linecap="round" stroke-linejoin="round"/>
<path d="M282.272 142.71C295.571 147.617 293.172 156.892 293.172 156.892H305.782V142.71H282.272Z" fill="white" stroke="#263238" stroke-width="1.076" stroke-linecap="round" stroke-linejoin="round"/>
<path d="M192.749 142.71C206.059 147.617 203.659 156.892 203.659 156.892H216.259V142.71H192.749Z" fill="#919191" stroke="#263238" stroke-width="1.076" stroke-linecap="round" stroke-linejoin="round"/>
<path d="M196.999 142.71C210.298 147.617 207.899 156.892 207.899 156.892H220.51V142.71H196.999Z" fill="white" stroke="#263238" stroke-width="1.076" stroke-linecap="round" stroke-linejoin="round"/>
<path d="M482.591 92.4829H371.161V247.168H482.591V92.4829Z" fill="#919191" stroke="#263238" stroke-width="1.076" stroke-linecap="round" stroke-linejoin="round"/>
<path d="M477.76 99.1973H376.003V240.454H477.76V99.1973Z" fill="#27E0F6"/>
<path opacity="0.5" d="M477.76 99.1973H376.003V240.454H477.76V99.1973Z" fill="white"/>
<path d="M398.373 229.726C395.645 233.888 392.198 237.532 388.194 240.486H477.76V99.1973H461.254L459.102 99.8751C442.962 104.965 426.284 119.695 416.826 146.466" stroke="#263238" stroke-width="1.076" stroke-linecap="round" stroke-linejoin="round"/>
<path d="M415.255 151.157C411.497 163.924 409.421 177.127 409.079 190.431C408.487 206.399 405.087 217.88 400.546 226.133" stroke="#263238" stroke-width="1.076" stroke-linecap="round" stroke-linejoin="round"/>
<path d="M467.807 135.049C453.012 143.657 435.785 158.118 429.351 180.294C425.897 192.13 429.136 202.804 435.538 211.94" stroke="#263238" stroke-width="1.076" stroke-linecap="round" stroke-linejoin="round"/>
<path d="M439.002 216.394C447.879 226.789 460.522 234.966 470.755 240.464H477.76V129.831C475.758 130.767 473.628 131.821 471.411 133.059" stroke="#263238" stroke-width="1.076" stroke-linecap="round" stroke-linejoin="round"/>
<path d="M392.917 136.029C400.708 120.147 401.525 107.547 400.632 99.1973H376.024V163.822C379.661 158.646 384.116 151.727 389.496 142.452C389.829 141.882 390.141 141.376 390.453 140.774" stroke="#263238" stroke-width="1.076" stroke-linecap="round" stroke-linejoin="round"/>
<path d="M402.559 197.199C401.364 205.022 397.771 210.703 393.531 210.703C388.313 210.703 384.073 202.095 384.073 191.442C384.073 180.79 388.313 172.182 393.531 172.182C398.75 172.182 402.989 180.79 402.989 191.442" stroke="#263238" stroke-width="1.076" stroke-linecap="round" stroke-linejoin="round"/>
<path d="M407.046 151.911C407.046 156.01 405.238 159.346 402.989 159.346C400.741 159.346 398.944 156.01 398.944 151.911C398.944 147.811 400.751 144.476 402.989 144.476C405.228 144.476 407.046 147.8 407.046 151.911Z" stroke="#263238" stroke-width="1.076" stroke-linecap="round" stroke-linejoin="round"/>
<path d="M458.672 183.319C462.578 185.18 465.128 188.43 465.128 192.12C465.128 197.898 458.779 202.59 450.935 202.59C443.091 202.59 436.754 197.898 436.754 192.12C436.754 186.342 443.102 181.64 450.935 181.64C452.185 181.639 453.432 181.762 454.658 182.006" stroke="#263238" stroke-width="1.076" stroke-linecap="round" stroke-linejoin="round"/>
<path d="M456.918 192.12C456.918 194.541 454.26 196.51 450.967 196.51C447.675 196.51 445.017 194.541 445.017 192.12C445.017 189.699 447.686 187.719 450.967 187.719C454.249 187.719 456.918 189.688 456.918 192.12Z" stroke="#263238" stroke-width="1.076" stroke-linecap="round" stroke-linejoin="round"/>
<path d="M466.516 165.424C466.516 168.781 463.191 171.503 459.081 171.503C454.97 171.503 451.645 168.781 451.645 165.424C451.645 162.067 454.97 159.345 459.081 159.345C463.191 159.345 466.516 162.067 466.516 165.424Z" stroke="#263238" stroke-width="1.076" stroke-linecap="round" stroke-linejoin="round"/>
<path d="M412.792 131.639C415.591 131.639 417.86 126.041 417.86 119.136C417.86 112.231 415.591 106.633 412.792 106.633C409.993 106.633 407.724 112.231 407.724 119.136C407.724 126.041 409.993 131.639 412.792 131.639Z" stroke="#263238" stroke-width="1.076" stroke-linecap="round" stroke-linejoin="round"/>
<path d="M426.65 226.584C426.65 227.989 426.234 229.362 425.454 230.53C424.673 231.698 423.564 232.608 422.267 233.145C420.969 233.683 419.541 233.824 418.163 233.55C416.786 233.276 415.52 232.599 414.527 231.606C413.534 230.613 412.858 229.348 412.584 227.97C412.31 226.592 412.45 225.164 412.988 223.867C413.525 222.569 414.436 221.46 415.603 220.68C416.771 219.899 418.144 219.483 419.549 219.483C421.432 219.483 423.239 220.231 424.57 221.563C425.902 222.895 426.65 224.701 426.65 226.584Z" stroke="#263238" stroke-width="1.076" stroke-linecap="round" stroke-linejoin="round"/>
<path d="M459.759 121.159C459.761 122.03 459.504 122.882 459.022 123.608C458.539 124.333 457.852 124.899 457.047 125.233C456.242 125.568 455.357 125.656 454.502 125.486C453.647 125.317 452.862 124.897 452.246 124.281C451.63 123.665 451.211 122.88 451.041 122.025C450.872 121.171 450.96 120.285 451.294 119.48C451.629 118.676 452.194 117.989 452.92 117.506C453.645 117.023 454.497 116.766 455.369 116.769C456.532 116.771 457.647 117.235 458.47 118.058C459.293 118.88 459.756 119.995 459.759 121.159Z" stroke="#263238" stroke-width="1.076" stroke-linecap="round" stroke-linejoin="round"/>
<path d="M432.052 152.243C432.054 152.712 431.917 153.171 431.659 153.561C431.4 153.952 431.031 154.257 430.598 154.438C430.166 154.619 429.69 154.667 429.23 154.577C428.77 154.487 428.347 154.262 428.015 153.932C427.683 153.601 427.456 153.179 427.364 152.72C427.272 152.26 427.318 151.784 427.497 151.351C427.676 150.917 427.979 150.547 428.369 150.286C428.758 150.026 429.216 149.887 429.685 149.887C429.995 149.885 430.303 149.945 430.59 150.063C430.877 150.181 431.138 150.354 431.358 150.573C431.578 150.792 431.753 151.052 431.872 151.339C431.991 151.626 432.052 151.933 432.052 152.243Z" stroke="#263238" stroke-width="1.076" stroke-linecap="round" stroke-linejoin="round"/>
<path d="M477.76 99.1973H376.003V240.454H477.76V99.1973Z" stroke="#263238" stroke-width="1.076" stroke-linecap="round" stroke-linejoin="round"/>
<path d="M311.453 300.623H283.811V311.028H311.453V300.623Z" fill="#263238" stroke="#263238" stroke-width="1.076" stroke-linecap="round" stroke-linejoin="round"/>
<path d="M348.543 302.194H238.522L243.73 216.911H353.761L348.543 302.194Z" fill="#919191" stroke="#263238" stroke-width="1.076" stroke-linecap="round" stroke-linejoin="round"/>
<path d="M345.39 302.194H235.37L240.578 216.911H350.598L345.39 302.194Z" fill="#263238" stroke="#263238" stroke-width="1.076" stroke-linecap="round" stroke-linejoin="round"/>
<path d="M339.568 297.449H241.771L246.398 221.646H344.195L339.568 297.449Z" fill="white" stroke="#263238" stroke-width="1.076" stroke-linecap="round" stroke-linejoin="round"/>
<path d="M311.119 286.151H244.687L248.249 227.735H314.691L311.119 286.151Z" fill="#919191" stroke="#263238" stroke-width="1.076" stroke-linecap="round" stroke-linejoin="round"/>
<path d="M270.899 261.059C270.899 261.059 257.061 266.536 256.975 268.01C256.889 269.484 254.178 286.151 254.178 286.151H295.324L291.859 266.955L276.634 260.628L270.899 261.059Z" fill="white" stroke="#263238" stroke-width="1.076" stroke-linecap="round" stroke-linejoin="round"/>
<path d="M271.308 257.68C270.267 257.955 269.3 258.458 268.478 259.154C267.402 260.23 266.09 263.792 266.09 263.792L266.036 268.01L271.491 265.062L277.032 264.696L282.219 269.548L282.886 262.167C282.886 262.167 282.09 257.949 280.411 257.734C278.733 257.519 271.308 257.68 271.308 257.68Z" fill="white" stroke="#263238" stroke-width="1.076" stroke-linecap="round" stroke-linejoin="round"/>
<path d="M271.135 253.677L270.899 261.059L274.159 266.331L279.55 260.843L280.389 254.097L271.135 253.677Z" fill="white" stroke="#263238" stroke-width="1.076" stroke-linecap="round" stroke-linejoin="round"/>
<path d="M284.435 245.048C284.047 251.235 279.937 258.735 275.429 258.735C270.92 258.735 267.725 251.203 268.101 245.048C268.478 238.894 272.405 233.847 276.946 233.847C281.487 233.847 284.811 238.872 284.435 245.048Z" fill="white" stroke="#263238" stroke-width="1.076" stroke-linecap="round" stroke-linejoin="round"/>
<path d="M268.025 245.865C268.025 245.865 266.573 242.078 265.97 245.026C265.368 247.974 268.338 251.138 268.338 251.138L268.025 245.865Z" fill="white" stroke="#263238" stroke-width="1.076" stroke-linecap="round" stroke-linejoin="round"/>
<path d="M284.434 245.048C284.434 245.048 287.996 243.552 286.952 246.715C286.687 247.611 286.225 248.435 285.599 249.128C284.974 249.82 284.2 250.364 283.337 250.718L284.434 245.048Z" fill="white" stroke="#263238" stroke-width="1.076" stroke-linecap="round" stroke-linejoin="round"/>
<path d="M274.987 245.866C275.016 245.486 274.965 245.105 274.838 244.745C274.71 244.386 274.51 244.058 274.249 243.78C273.988 243.503 273.672 243.283 273.321 243.135C272.97 242.986 272.592 242.912 272.211 242.918C271.418 242.939 270.661 243.251 270.083 243.794C269.506 244.338 269.149 245.076 269.08 245.866C269.052 246.246 269.103 246.628 269.23 246.988C269.357 247.348 269.557 247.677 269.818 247.955C270.079 248.233 270.395 248.454 270.746 248.604C271.097 248.754 271.475 248.829 271.856 248.825C272.651 248.804 273.41 248.49 273.988 247.944C274.565 247.398 274.921 246.658 274.987 245.866Z" fill="white" stroke="#263238" stroke-width="1.076" stroke-linecap="round" stroke-linejoin="round"/>
<path d="M282.154 245.866L285.371 245.026" stroke="#263238" stroke-width="1.076" stroke-linecap="round" stroke-linejoin="round"/>
<path d="M282.154 245.866C282.182 245.487 282.131 245.106 282.005 244.748C281.878 244.39 281.679 244.061 281.419 243.784C281.159 243.507 280.844 243.287 280.495 243.138C280.145 242.989 279.768 242.914 279.388 242.918C278.593 242.936 277.833 243.247 277.253 243.791C276.674 244.335 276.315 245.074 276.246 245.866C276.218 246.246 276.269 246.628 276.396 246.988C276.523 247.348 276.724 247.677 276.984 247.955C277.245 248.233 277.561 248.454 277.912 248.604C278.263 248.754 278.641 248.829 279.022 248.825C279.817 248.804 280.576 248.49 281.154 247.944C281.732 247.398 282.088 246.658 282.154 245.866Z" fill="white" stroke="#263238" stroke-width="1.076" stroke-linecap="round" stroke-linejoin="round"/>
<path d="M276.214 232.577C276.214 232.577 272.986 230.898 270.565 231.952C268.144 233.007 266.358 238.699 266.476 240.173C266.856 242.105 267.374 244.007 268.026 245.865L270.587 238.484L277.301 235.535L276.214 232.577Z" fill="#263238" stroke="#263238" stroke-width="1.076" stroke-linecap="round" stroke-linejoin="round"/>
<path d="M272.964 234.061C272.964 234.061 278.28 229.844 282.584 231.909C283.901 232.482 284.99 233.477 285.678 234.738C286.366 235.999 286.614 237.454 286.382 238.871C286.317 239.947 286.231 244.768 286.231 244.768L283.67 245.198L282.412 241.228C280.957 240.652 279.541 239.984 278.172 239.226C278.172 239.226 272.48 238.484 272.964 234.061Z" fill="#263238" stroke="#263238" stroke-width="1.076" stroke-linecap="round" stroke-linejoin="round"/>
<path d="M274.988 245.866L274.611 251.988H276.085" fill="white"/>
<path d="M274.988 245.866L274.611 251.988H276.085" stroke="#263238" stroke-width="1.076" stroke-linecap="round" stroke-linejoin="round"/>
<path d="M273.837 254.301H277" stroke="#263238" stroke-width="1.076" stroke-linecap="round" stroke-linejoin="round"/>
<path d="M274.159 266.331L272.987 285.516" stroke="#263238" stroke-width="1.076" stroke-linecap="round" stroke-linejoin="round"/>
<path d="M291.838 266.955C291.838 266.955 287.437 276.876 287.308 278.985C287.178 281.094 286.683 285.731 286.683 285.731" stroke="#263238" stroke-width="1.076" stroke-linecap="round" stroke-linejoin="round"/>
<path d="M256.975 268.01C256.975 268.01 261.354 275.606 261.924 276.618C262.495 277.629 261.795 285.688 261.795 285.688" stroke="#263238" stroke-width="1.076" stroke-linecap="round" stroke-linejoin="round"/>
<path d="M294.776 274.132L296.228 267.59L298.703 265.061L301.038 261.263H302.092L300.801 265.276L304.072 263.372L306.181 260.004L307.408 260.628L304.395 268.44L299.617 270.753L298.789 273.917L294.776 274.132Z" fill="white" stroke="#263238" stroke-width="1.076" stroke-linecap="round" stroke-linejoin="round"/>
<path d="M298.864 286.151L299.262 273.078L294.463 272.228L290.675 286.151H298.864Z" fill="white" stroke="#263238" stroke-width="1.076" stroke-linecap="round" stroke-linejoin="round"/>
<path d="M310.829 291.003H244.387L244.688 286.15H311.12L310.829 291.003Z" fill="white" stroke="#263238" stroke-width="1.076" stroke-linecap="round" stroke-linejoin="round"/>
<path d="M247.098 288.056H308.053" stroke="#263238" stroke-width="1.076" stroke-linecap="round" stroke-linejoin="round"/>
<path d="M339.676 243.327H317.317L318.264 227.929H340.623L339.676 243.327Z" fill="#27E0F6" stroke="#263238" stroke-width="1.076" stroke-linecap="round" stroke-linejoin="round"/>
<path d="M339.676 243.326H317.317L317.478 240.798H339.837L339.676 243.326Z" fill="white" stroke="#263238" stroke-width="1.076" stroke-linecap="round" stroke-linejoin="round"/>
<path d="M332.456 234.729L326.646 231.254L326.226 238.205L332.456 234.729Z" fill="white" stroke="#263238" stroke-width="1.076" stroke-linecap="round" stroke-linejoin="round"/>
<path d="M338.224 267.16H315.865L316.801 251.773H339.16L338.224 267.16Z" fill="#27E0F6" stroke="#263238" stroke-width="1.076" stroke-linecap="round" stroke-linejoin="round"/>
<path d="M338.224 267.159H315.865L316.026 264.631H338.374L338.224 267.159Z" fill="white" stroke="#263238" stroke-width="1.076" stroke-linecap="round" stroke-linejoin="round"/>
<path d="M331.004 258.574L325.194 255.098L324.774 262.049L331.004 258.574Z" fill="white" stroke="#263238" stroke-width="1.076" stroke-linecap="round" stroke-linejoin="round"/>
<path d="M336.761 291.003H314.412L315.349 275.606H337.708L336.761 291.003Z" fill="#27E0F6" stroke="#263238" stroke-width="1.076" stroke-linecap="round" stroke-linejoin="round"/>
<path d="M336.761 291.004H314.412L314.563 288.475H336.922L336.761 291.004Z" fill="white" stroke="#263238" stroke-width="1.076" stroke-linecap="round" stroke-linejoin="round"/>
<path d="M329.54 282.406L323.741 278.931L323.31 285.882L329.54 282.406Z" fill="white" stroke="#263238" stroke-width="1.076" stroke-linecap="round" stroke-linejoin="round"/>
<path d="M317.382 245.866H339.096" stroke="#263238" stroke-width="1.076" stroke-linecap="round" stroke-linejoin="round"/>
<path d="M317.22 248.405H338.944" stroke="#263238" stroke-width="1.076" stroke-linecap="round" stroke-linejoin="round"/>
<path d="M315.908 269.914H337.632" stroke="#263238" stroke-width="1.076" stroke-linecap="round" stroke-linejoin="round"/>
<path d="M315.757 272.443H337.482" stroke="#263238" stroke-width="1.076" stroke-linecap="round" stroke-linejoin="round"/>
<path d="M306.278 311.028H289.944C289.944 309.398 290.591 307.836 291.744 306.683C292.896 305.531 294.459 304.884 296.088 304.884H300.112C301.742 304.884 303.304 305.531 304.457 306.683C305.609 307.836 306.256 309.398 306.256 311.028H306.278Z" fill="white" stroke="#263238" stroke-width="1.076" stroke-linecap="round" stroke-linejoin="round"/>
<path d="M282.164 307.682H202.304V311.028H282.164V307.682Z" fill="#919191" stroke="#263238" stroke-width="1.076" stroke-linecap="round" stroke-linejoin="round"/>
<path d="M282.143 307.682H262.075V311.028H282.143V307.682Z" fill="white" stroke="#263238" stroke-width="1.076" stroke-linecap="round" stroke-linejoin="round"/>
<path d="M169.572 147.014V83.4336" stroke="#263238" stroke-width="1.076" stroke-linecap="round" stroke-linejoin="round"/>
<path d="M169.572 465.218V153.341" stroke="#263238" stroke-width="1.076" stroke-linecap="round" stroke-linejoin="round"/>
<path d="M314.767 333.345L324.451 463.895C324.501 464.372 324.732 464.811 325.094 465.124C325.457 465.437 325.926 465.599 326.405 465.579C326.883 465.558 327.336 465.356 327.671 465.013C328.006 464.67 328.197 464.213 328.206 463.734L326.754 333.345H314.767Z" fill="#919191" stroke="#263238" stroke-width="1.076" stroke-linecap="round" stroke-linejoin="round"/>
<path d="M322.073 333.345L327.184 465.402C327.486 465.241 327.738 465 327.912 464.706C328.087 464.412 328.177 464.076 328.174 463.734L326.754 333.345H322.073Z" fill="white" stroke="#263238" stroke-width="1.076" stroke-linecap="round" stroke-linejoin="round"/>
<path d="M375.636 333.345L385.32 463.895C385.37 464.372 385.6 464.811 385.963 465.124C386.326 465.437 386.794 465.599 387.273 465.579C387.752 465.558 388.205 465.356 388.539 465.013C388.874 464.67 389.066 464.213 389.075 463.734L387.622 333.345H375.636Z" fill="#919191" stroke="#263238" stroke-width="1.076" stroke-linecap="round" stroke-linejoin="round"/>
<path d="M382.372 333.345L388.333 465.208C388.557 465.033 388.737 464.809 388.86 464.554C388.983 464.298 389.046 464.018 389.043 463.734L387.623 333.345H382.372Z" fill="white" stroke="#263238" stroke-width="1.076" stroke-linecap="round" stroke-linejoin="round"/>
<path d="M215.184 334.765L205.5 463.884C205.467 464.358 205.255 464.802 204.908 465.125C204.56 465.449 204.102 465.628 203.627 465.627C203.378 465.632 203.131 465.586 202.899 465.494C202.668 465.402 202.457 465.265 202.279 465.091C202.101 464.917 201.959 464.709 201.862 464.48C201.764 464.251 201.713 464.004 201.712 463.755L203.143 334.42L215.184 334.765Z" fill="#263238" stroke="#263238" stroke-width="1.076" stroke-linecap="round" stroke-linejoin="round"/>
<path d="M154.368 334.765L144.684 463.884C144.651 464.358 144.439 464.802 144.092 465.125C143.744 465.449 143.287 465.629 142.812 465.627C142.563 465.626 142.318 465.576 142.089 465.479C141.861 465.382 141.653 465.242 141.479 465.065C141.305 464.888 141.168 464.678 141.075 464.448C140.983 464.217 140.936 463.971 140.939 463.723L142.37 334.388L154.368 334.765Z" fill="#263238" stroke="#263238" stroke-width="1.076" stroke-linecap="round" stroke-linejoin="round"/>
<path d="M391.184 314.063H138.723V334.399H391.184V314.063Z" fill="#919191" stroke="#263238" stroke-width="1.076" stroke-linecap="round" stroke-linejoin="round"/>
<path d="M391.184 314.063H318.834V334.399H391.184V314.063Z" fill="white" stroke="#263238" stroke-width="1.076" stroke-linecap="round" stroke-linejoin="round"/>
<path d="M391.184 317.291H138.723V322.897H391.184V317.291Z" fill="#263238" stroke="#263238" stroke-width="1.076" stroke-linecap="round" stroke-linejoin="round"/>
<path d="M394.821 311.147H135.086V317.947H394.821V311.147Z" fill="#919191" stroke="#263238" stroke-width="1.076" stroke-linecap="round" stroke-linejoin="round"/>
<path d="M394.81 311.147H323.482V317.947H394.81V311.147Z" fill="white" stroke="#263238" stroke-width="1.076" stroke-linecap="round" stroke-linejoin="round"/>
<path d="M318.231 185.072H283.175C281.349 185.072 279.597 185.798 278.306 187.089C277.015 188.381 276.289 190.132 276.289 191.959V204.871C276.288 205.775 276.465 206.671 276.81 207.508C277.156 208.344 277.663 209.103 278.303 209.743C278.943 210.383 279.702 210.89 280.538 211.236C281.375 211.581 282.271 211.758 283.175 211.757H301.532L294.656 230.963L307.827 211.757H318.231C319.136 211.758 320.032 211.581 320.868 211.236C321.704 210.89 322.464 210.383 323.104 209.743C323.744 209.103 324.251 208.344 324.596 207.508C324.942 206.671 325.119 205.775 325.118 204.871V191.959C325.118 190.132 324.392 188.381 323.101 187.089C321.809 185.798 320.058 185.072 318.231 185.072Z" fill="white" stroke="#263238" stroke-width="1.076" stroke-linecap="round" stroke-linejoin="round"/>
<path d="M291.31 201.352C292.694 201.352 293.817 200.23 293.817 198.845C293.817 197.46 292.694 196.338 291.31 196.338C289.925 196.338 288.803 197.46 288.803 198.845C288.803 200.23 289.925 201.352 291.31 201.352Z" fill="#263238"/>
<path d="M300.704 201.352C302.088 201.352 303.211 200.23 303.211 198.845C303.211 197.46 302.088 196.338 300.704 196.338C299.319 196.338 298.197 197.46 298.197 198.845C298.197 200.23 299.319 201.352 300.704 201.352Z" fill="#263238"/>
<path d="M312.593 198.845C312.593 198.349 312.446 197.863 312.17 197.451C311.894 197.038 311.502 196.717 311.043 196.528C310.584 196.338 310.08 196.289 309.593 196.387C309.106 196.484 308.66 196.724 308.31 197.076C307.959 197.428 307.721 197.875 307.626 198.362C307.53 198.849 307.582 199.354 307.773 199.812C307.964 200.27 308.287 200.661 308.701 200.935C309.115 201.209 309.601 201.354 310.097 201.352C310.426 201.352 310.751 201.287 311.055 201.161C311.358 201.035 311.634 200.85 311.866 200.617C312.098 200.384 312.282 200.108 312.406 199.804C312.531 199.499 312.595 199.174 312.593 198.845Z" fill="#263238"/>
<path d="M484.699 465.907H513.751" stroke="#263238" stroke-width="1.076" stroke-linecap="round" stroke-linejoin="round"/>
<path d="M26.3245 465.907H469.635" stroke="#263238" stroke-width="1.076" stroke-linecap="round" stroke-linejoin="round"/>
<path d="M197.021 275.757C193.868 270.377 184.593 249.664 184.593 249.664C184.873 247.451 185.326 245.264 185.949 243.122C186.713 240.97 188.639 234.45 188.252 233.094C187.864 231.738 182.28 229.242 181.71 229.048C181.139 228.855 182.474 225.584 180.354 224.809C178.234 224.034 177.47 225.196 177.47 225.196L176.663 230.576L174.188 234.45C173.158 233.666 172.08 232.948 170.96 232.298C169.228 231.329 165.182 230.942 164.989 232.491C164.795 234.041 168.217 235.375 169.411 236.343C170.605 237.312 172.112 241.928 173.467 243.284C174.699 244.628 175.856 246.04 176.932 247.512L177.707 250.019C177.707 250.019 180.343 275.402 180.655 281.718C180.967 288.034 181.914 304.745 183.808 307.262C185.702 309.78 186.024 311.373 191.34 309.479C196.655 307.585 197.645 305.057 198.872 299.375C200.098 293.694 200.174 281.116 197.021 275.757Z" fill="white" stroke="#263238" stroke-width="1.076" stroke-linecap="round" stroke-linejoin="round"/>
<path d="M198.915 299.408C200.174 293.737 200.174 281.116 197.021 275.736C196.677 275.144 196.257 274.38 195.784 273.476C188.65 271.399 181.871 274.789 181.871 274.789L180.15 275.542C180.376 278.178 180.548 280.384 180.612 281.729C180.935 288.034 181.871 304.755 183.765 307.273C185.659 309.791 185.982 311.383 191.297 309.49C196.613 307.596 197.645 305.089 198.915 299.408Z" fill="#27E0F6" stroke="#263238" stroke-width="1.076" stroke-linecap="round" stroke-linejoin="round"/>
<path d="M174.016 190.452C174.793 193.306 175.227 196.243 175.308 199.2C175.308 203.407 174.016 206 175.964 207.291C177.912 208.583 179.526 208.593 179.192 211.187C179.064 212.618 178.497 213.975 177.567 215.071C177.567 215.071 176.922 228.349 176.276 229.651C175.63 230.953 167.205 229.328 165.258 228.994C163.31 228.661 157.812 231.265 154.24 224.142C150.667 217.018 153.594 206.323 160.072 200.814C164.527 197.108 169.182 193.649 174.016 190.452Z" fill="white" stroke="#263238" stroke-width="1.076" stroke-linecap="round" stroke-linejoin="round"/>
<path d="M175.308 199.147C175.308 199.147 173.554 197.834 172.628 200.137" stroke="#263238" stroke-width="1.076" stroke-linecap="round" stroke-linejoin="round"/>
<path d="M173.737 204.505C173.485 205.81 173.567 207.157 173.974 208.422" stroke="#263238" stroke-width="1.076" stroke-linecap="round" stroke-linejoin="round"/>
<path d="M176.965 219.719C176.677 219.812 176.373 219.843 176.073 219.81C175.773 219.777 175.483 219.681 175.222 219.529C174.961 219.377 174.735 219.171 174.559 218.926C174.383 218.681 174.26 218.401 174.199 218.105" stroke="#263238" stroke-width="1.076" stroke-linecap="round" stroke-linejoin="round"/>
<path d="M180.634 280.62C180.634 280.62 179.558 285.548 178.6 288.152C177.643 290.756 160.47 295.534 152.992 296.524C148.065 297.139 143.107 297.466 138.143 297.503L138.616 311.125C138.616 311.125 153.099 311.415 154.121 311.125C155.144 310.834 179.526 299.934 179.526 299.934L190.049 298.557C190.049 298.557 194.471 297.481 194.643 294.049C194.816 290.616 190.91 280.857 189.134 279.34C187.359 277.823 183.614 273.799 181.366 276.273C179.117 278.748 180.634 280.62 180.634 280.62Z" fill="white" stroke="#263238" stroke-width="1.076" stroke-linecap="round" stroke-linejoin="round"/>
<path d="M148.344 305.078C148.344 299.192 149.85 299.041 151.572 296.707C147.123 297.204 142.652 297.469 138.175 297.503L137.82 310.006C137.82 310.006 145.75 310.738 150.582 311.082C150.184 311.695 148.344 308.865 148.344 305.078Z" fill="#27E0F6" stroke="#263238" stroke-width="1.076" stroke-linecap="round" stroke-linejoin="round"/>
<path d="M195.107 331.548C189.377 325.11 182.094 320.246 173.952 317.421L155.058 325.48C153.591 321.877 151.643 318.49 149.269 315.408L145.74 311.104L148.01 298.763C148.01 298.763 161.611 289.445 163.365 285.41L163.429 285.281C166.162 289.509 178.02 307.812 180.247 309.587C182.765 311.61 190.318 311.858 193.589 308.834C196.86 305.811 198.378 303.798 197.624 299.268C197.624 299.268 192.589 288.433 189.813 283.645C187.037 278.857 181 261.738 177.977 256.444C175.825 252.656 174.932 249.988 173.404 248.202C172.343 246.374 171.091 244.665 169.67 243.101C166.646 239.873 158.329 239.066 156.564 238.313C154.8 237.56 154.552 237.302 144.481 234.289C134.41 231.276 123.069 229.501 115.009 235.795C115.009 235.795 104.185 248.643 99.9454 269.797C95.706 290.951 95.4047 312.363 94.9098 316.14C94.4148 319.917 90.1216 338.306 88.8627 348.883C87.6037 359.46 98.6435 370.08 105.444 373.372C112.244 376.665 141.457 377.149 158.587 373.372C175.717 369.596 202.918 352.466 202.918 352.466C202.918 352.466 203.919 341.878 195.107 331.548Z" fill="#27E0F6" stroke="#263238" stroke-width="1.076" stroke-linecap="round" stroke-linejoin="round"/>
<path d="M150.57 285.011L147.116 284.893" stroke="#263238" stroke-width="1.076" stroke-linecap="round" stroke-linejoin="round"/>
<path d="M149.269 279.513C154.107 281.143 158.818 283.128 163.364 285.452L154.498 285.151" stroke="#263238" stroke-width="1.076" stroke-linecap="round" stroke-linejoin="round"/>
<path d="M196.064 285.872C197.058 287.433 197.67 289.206 197.851 291.048C197.851 293.426 198.249 296.611 197.259 295.621C196.269 294.631 195.86 291.241 195.86 291.241L196.064 285.872Z" fill="white" stroke="#263238" stroke-width="1.076" stroke-linecap="round" stroke-linejoin="round"/>
<path d="M190.103 283.096C190.103 283.096 193.826 281.073 195.483 283.505C197.14 285.936 196.699 290.789 195.483 293.189C194.267 295.588 192.879 293.296 193.051 291.166C193.223 289.035 190.103 283.096 190.103 283.096Z" fill="white" stroke="#263238" stroke-width="1.076" stroke-linecap="round" stroke-linejoin="round"/>
<path d="M188.704 280.513C188.704 280.513 192.438 278.49 194.084 280.922C195.73 283.354 195.289 288.196 194.084 290.606C192.879 293.016 191.48 290.714 191.652 288.583C191.825 286.453 188.704 280.513 188.704 280.513Z" fill="white" stroke="#263238" stroke-width="1.076" stroke-linecap="round" stroke-linejoin="round"/>
<path d="M186.994 277.727C186.994 277.727 190.727 275.704 192.374 278.136C194.02 280.567 193.589 285.42 192.374 287.819C191.158 290.219 189.77 287.927 189.942 285.797C190.114 283.666 186.994 277.727 186.994 277.727Z" fill="white" stroke="#263238" stroke-width="1.076" stroke-linecap="round" stroke-linejoin="round"/>
<path d="M177.546 180.349C177.608 184.216 176.611 188.026 174.663 191.367C169.153 199.792 163.978 198.813 161.751 205.624C159.523 212.435 156.198 219.504 159.749 223.442C163.3 227.381 166.205 225.056 166.205 225.056C166.205 225.056 168.476 230.888 162.644 236.72C156.812 242.552 146.773 240.282 144.18 239.313C142.547 238.684 141.019 237.81 139.65 236.72C139.65 236.72 138.025 241.261 129.966 241.261C121.906 241.261 112.75 235.752 112.75 225.702C112.75 215.652 118.248 208.863 119.55 204.968C120.852 201.072 117.28 189.097 122.778 181.651C128.276 174.205 136.766 168.739 143.222 168.739C149.678 168.739 162.278 172.279 162.332 172.3C163.182 172.763 168.626 170.546 170.1 170.643C175.513 170.945 177.482 175.388 177.546 180.349Z" fill="#263238" stroke="#263238" stroke-width="1.076" stroke-linecap="round" stroke-linejoin="round"/>
<path d="M156.521 226.434C157.696 226.59 158.886 226.59 160.061 226.434" stroke="#919191" stroke-width="1.076" stroke-linecap="round" stroke-linejoin="round"/>
<path d="M172.876 185.998C172.365 188.882 171.302 191.64 169.745 194.121C164.709 202.03 158.985 204.881 152.131 212.413C147.73 217.288 148.559 222.151 152.131 224.701" stroke="#919191" stroke-width="1.076" stroke-linecap="round" stroke-linejoin="round"/>
<path d="M172.973 177.595C173.183 178.781 173.287 179.984 173.285 181.189" stroke="#919191" stroke-width="1.076" stroke-linecap="round" stroke-linejoin="round"/>
<path d="M166.205 185.137C166.205 185.137 165.129 196.274 160.459 202.741C155.789 209.207 146.471 212.424 146.805 219.268" stroke="#919191" stroke-width="1.076" stroke-linecap="round" stroke-linejoin="round"/>
<path d="M209.568 371.553C209.568 371.553 216.282 406.049 222.028 422.813C227.774 439.577 233.519 454.91 234.94 456.352C236.36 457.794 240.212 463.056 240.212 463.056C238.432 464.477 236.256 465.315 233.982 465.455C230.625 465.455 226.321 461.151 222.48 458.741C218.638 456.331 218.176 454.91 210.504 452.037C202.832 449.165 209.073 441.504 210.988 437.662C212.096 435.589 212.748 433.304 212.903 430.959C209.858 420.169 204.46 410.189 197.097 401.735C185.143 388.328 182.743 357.232 182.743 357.232L205.737 348.624L209.568 371.553Z" fill="white" stroke="#263238" stroke-width="1.076" stroke-linecap="round" stroke-linejoin="round"/>
<path d="M233.992 454.632L232.604 454.911C232.604 454.911 224.459 443.893 218.24 440.063C216.12 438.599 213.626 437.77 211.052 437.674C209.126 441.504 202.907 449.165 210.568 452.038C218.229 454.911 218.713 456.342 222.544 458.742C226.374 461.141 230.689 465.456 234.046 465.456C236.32 465.316 238.496 464.478 240.276 463.057C240.276 463.057 236.435 457.784 235.004 456.353C234.596 455.824 234.256 455.245 233.992 454.632Z" fill="#27E0F6" stroke="#263238" stroke-width="1.076" stroke-linecap="round" stroke-linejoin="round"/>
<path d="M230.13 464.089C226.343 461.475 222.921 455.664 216.756 452.038C211.15 448.746 208.266 448.616 207.072 448.864C207.364 449.632 207.835 450.321 208.444 450.872C209.054 451.424 209.786 451.823 210.58 452.038C218.251 454.911 218.725 456.342 222.555 458.742C224.976 460.291 227.645 462.68 230.13 464.089Z" fill="#27E0F6" stroke="#263238" stroke-width="1.076" stroke-linecap="round" stroke-linejoin="round"/>
<path d="M233.993 465.456C233.748 465.447 233.503 465.422 233.261 465.381C233.503 465.427 233.747 465.452 233.993 465.456Z" fill="#27E0F6" stroke="#263238" stroke-width="1.076" stroke-linecap="round" stroke-linejoin="round"/>
<path d="M166.872 319.572C166.872 319.572 189.899 311.416 192.051 316.796C194.203 322.176 204.059 342.243 200.465 350.485C196.871 358.728 171.607 326.813 168.013 326.125C164.419 325.436 166.453 321.982 166.872 319.572Z" fill="white" stroke="#263238" stroke-width="1.076" stroke-linecap="round" stroke-linejoin="round"/>
<path d="M189.435 330.085C189.435 330.085 215.614 327.933 220.639 332.603C225.664 337.273 208.448 393.214 199.119 410.785C184.497 438.266 188.919 445.464 188.919 445.464C188.919 445.464 189.995 449.768 197.172 456.59C204.349 463.412 206.501 464.477 203.983 465.553C201.465 466.629 190.716 465.553 189.64 464.832C188.564 464.111 180.677 457.666 173.5 455.514C166.323 453.362 167.399 451.92 170.627 445.464C173.855 439.008 173.5 444.388 177.083 433.273C181.378 419.576 184.771 405.612 187.24 391.47C189.145 379.947 192.05 367.293 191.232 355.575L189.435 330.085Z" fill="white" stroke="#263238" stroke-width="1.076" stroke-linecap="round" stroke-linejoin="round"/>
<path d="M208.61 347.601C205.868 340.987 201.153 335.381 195.106 331.547C183.657 324.241 173.952 317.419 173.952 317.419L155.057 325.479C155.057 325.479 159.663 333.29 135.991 337.239C117.763 340.274 101.032 335.873 92.0041 330.568C90.7452 336.82 89.4325 343.771 88.7761 348.86C87.5172 359.437 98.6 370.014 105.4 373.296C112.201 376.578 166.99 383.367 181.742 373.888C208.61 356.704 208.61 347.601 208.61 347.601Z" fill="#263238" stroke="#263238" stroke-width="1.076" stroke-linecap="round" stroke-linejoin="round"/>
<path d="M152.916 331.408C150.387 333.485 145.459 335.712 135.991 337.251C117.763 340.285 101.031 335.884 92.0038 330.58C91.681 332.183 91.3582 333.808 91.0354 335.475C97.2224 339.198 110.22 345.504 124.875 343.707C142.36 341.565 150.129 336.788 152.916 331.408Z" fill="#27E0F6" stroke="#263238" stroke-width="1.076" stroke-linecap="round" stroke-linejoin="round"/>
<path d="M138.95 354.455C138.11 355.531 137.239 356.607 136.357 357.683" stroke="white" stroke-width="1.076" stroke-linecap="round" stroke-linejoin="round"/>
<path d="M152.131 334.033C148.819 340.122 145.125 345.994 141.069 351.615" stroke="white" stroke-width="1.076" stroke-linecap="round" stroke-linejoin="round"/>
<path d="M144.244 340.845C144.244 340.845 137.788 349.453 130.977 354.478" stroke="white" stroke-width="1.076" stroke-linecap="round" stroke-linejoin="round"/>
<path d="M197.172 456.568C189.995 449.767 188.919 445.463 188.919 445.463C188.679 445.24 188.488 444.969 188.359 444.667C187.875 445.173 186.412 446.13 182.829 444.753C179.719 443.559 176.771 441.525 173.661 440.159C172.919 441.482 172.198 442.311 170.627 445.463C167.399 451.919 166.323 453.361 173.5 455.513C180.677 457.665 188.564 464.121 189.64 464.831C190.716 465.541 201.476 466.628 203.983 465.552C206.49 464.476 204.349 463.379 197.172 456.568Z" fill="#27E0F6" stroke="#263238" stroke-width="1.076" stroke-linecap="round" stroke-linejoin="round"/>
<path d="M203.779 351.249L215.98 343.717" stroke="#263238" stroke-width="1.076" stroke-linecap="round" stroke-linejoin="round"/>
<path d="M58.0137 283.052C58.0137 283.052 96.8787 278.189 121.713 285.204L125.489 379.687H67.2134C67.2134 379.687 70.9687 328.933 58.0137 283.052Z" fill="#919191" stroke="#263238" stroke-width="1.076" stroke-linecap="round" stroke-linejoin="round"/>
<path d="M121.713 285.204C96.8787 278.189 58.0137 283.052 58.0137 283.052C62.1727 298.344 64.935 313.981 66.2666 329.772C87.9681 340.608 107.845 354.767 125.177 371.736L121.713 285.204Z" fill="#757575" stroke="#263238" stroke-width="1.076" stroke-linecap="round" stroke-linejoin="round"/>
<path d="M194.999 468.06C194.559 468.061 194.129 467.928 193.768 467.678C193.406 467.428 193.13 467.073 192.976 466.661C184.368 443.463 182.216 383.239 182.087 380.689C182.067 380.118 182.274 379.563 182.664 379.145C183.053 378.728 183.593 378.482 184.163 378.462C184.734 378.442 185.289 378.649 185.707 379.039C186.125 379.428 186.371 379.968 186.391 380.538C186.391 381.163 188.629 442.613 197.011 465.155C197.209 465.69 197.187 466.282 196.948 466.8C196.71 467.319 196.276 467.722 195.741 467.92C195.505 468.014 195.253 468.061 194.999 468.06Z" fill="white" stroke="#263238" stroke-width="1.076" stroke-linecap="round" stroke-linejoin="round"/>
<path d="M148.139 468.06C147.701 468.059 147.274 467.925 146.915 467.675C146.555 467.425 146.28 467.071 146.127 466.661C137.519 443.463 135.367 383.239 135.227 380.689C135.207 380.118 135.415 379.563 135.804 379.145C136.194 378.728 136.733 378.482 137.304 378.462C137.875 378.442 138.43 378.649 138.848 379.039C139.265 379.428 139.511 379.968 139.531 380.538C139.531 381.163 141.769 442.613 150.162 465.155C150.36 465.69 150.338 466.282 150.1 466.8C149.862 467.319 149.427 467.722 148.892 467.92C148.652 468.014 148.397 468.061 148.139 468.06Z" fill="white" stroke="#263238" stroke-width="1.076" stroke-linecap="round" stroke-linejoin="round"/>
<path d="M194.417 379.644H66.1909V375.34H190.135C191.276 375.34 192.371 375.794 193.178 376.601C193.985 377.408 194.439 378.503 194.439 379.644H194.417Z" fill="#919191" stroke="#263238" stroke-width="1.076" stroke-linecap="round" stroke-linejoin="round"/>
<path d="M194.407 378.601H66.1909V382.873H194.407V378.601Z" fill="white" stroke="#263238" stroke-width="1.076" stroke-linecap="round" stroke-linejoin="round"/>
<path d="M120.755 468.059C120.431 468.066 120.11 468 119.815 467.865C119.521 467.73 119.26 467.531 119.053 467.282C118.846 467.033 118.699 466.74 118.621 466.425C118.543 466.111 118.537 465.783 118.603 465.466C130.773 407.814 119.679 286.581 119.529 285.366C119.502 285.083 119.532 284.798 119.616 284.527C119.7 284.256 119.837 284.004 120.018 283.786C120.199 283.567 120.422 283.387 120.673 283.255C120.924 283.122 121.199 283.041 121.481 283.015C122.052 282.962 122.621 283.138 123.061 283.504C123.502 283.87 123.78 284.397 123.833 284.967C123.951 286.194 135.13 408.061 122.832 466.348C122.732 466.827 122.471 467.257 122.094 467.568C121.716 467.879 121.244 468.052 120.755 468.059Z" fill="white" stroke="#263238" stroke-width="1.076" stroke-linecap="round" stroke-linejoin="round"/>
<path d="M54.0432 466.489C53.8426 466.491 53.6429 466.462 53.4514 466.402C52.9043 466.247 52.4411 465.881 52.1628 465.385C51.8846 464.889 51.814 464.303 51.9665 463.756C79.9424 364.441 56.1951 284.473 55.9584 283.677C55.8228 283.141 55.8983 282.574 56.1694 282.093C56.4404 281.611 56.8862 281.253 57.4144 281.091C57.9426 280.929 58.5127 280.977 59.0069 281.224C59.501 281.471 59.8812 281.898 60.0687 282.418C60.3162 283.225 84.4723 364.333 56.1091 464.918C55.9826 465.369 55.7124 465.766 55.3396 466.05C54.9667 466.333 54.5116 466.487 54.0432 466.489Z" fill="white" stroke="#263238" stroke-width="1.076" stroke-linecap="round" stroke-linejoin="round"/>
<path d="M447.449 289.068C447.449 289.068 434.225 281.719 433.246 298.375C432.266 315.031 429.824 423.287 429.824 423.287" stroke="#263238" stroke-width="2.15199" stroke-linecap="round" stroke-linejoin="round"/>
<path d="M426.38 299.838C426.38 299.838 437.14 323.843 432.266 421.824" stroke="#263238" stroke-width="2.15199" stroke-linecap="round" stroke-linejoin="round"/>
<path d="M436.979 292.425C436.979 292.425 431.911 295.653 429.038 291.952C426.165 288.25 430.986 281.45 426.736 278.545C422.485 275.639 415.136 280.073 415.136 280.073C415.136 280.073 420.785 281.73 420.602 284.818C420.419 287.906 417.697 289.068 417.374 287.723C417.052 286.378 414.308 279.578 409.724 282.407C408.399 283.188 407.247 284.229 406.337 285.469C405.427 286.708 404.778 288.119 404.43 289.617C404.43 289.617 415.115 288.476 415.76 292.49C416.406 296.503 411.381 291.79 406.969 291.532C402.558 291.274 398.534 291.919 398.824 294.588C398.922 296.949 398.782 299.314 398.405 301.646C400.82 299.64 403.873 298.564 407.013 298.612C411.865 298.902 411.682 301.991 407.271 301.732C402.859 301.474 399.072 305.67 399.072 305.67C399.072 305.67 403.096 312.546 408.207 315.946C413.318 319.346 415.158 318.098 415.739 315.505C416.32 312.912 414.964 306.165 418.052 306.348C421.14 306.531 412.941 317.991 416.879 318.669C420.818 319.346 423.992 318.206 425.025 315.613L426.101 313.02C426.101 313.02 424.723 306.295 425.326 303.68C425.929 301.065 426.649 303.755 427.349 306.908C428.048 310.061 428.489 317.593 429.834 317.227C431.179 316.861 435.494 311.373 436.506 309.211C437.517 307.048 430.824 300.473 430.9 299.15C430.975 297.826 436.14 300.344 436.947 301.722C437.533 302.768 438.061 303.845 438.528 304.95C438.528 304.95 441.756 302.927 441.67 296.729C441.584 290.531 436.979 292.425 436.979 292.425Z" fill="#27E0F6"/>
<path opacity="0.3" d="M436.979 292.425C436.979 292.425 431.911 295.653 429.038 291.952C426.165 288.25 430.986 281.45 426.736 278.545C422.485 275.639 415.136 280.073 415.136 280.073C415.136 280.073 420.785 281.73 420.602 284.818C420.419 287.906 417.697 289.068 417.374 287.723C417.052 286.378 414.308 279.578 409.724 282.407C408.399 283.188 407.247 284.229 406.337 285.469C405.427 286.708 404.778 288.119 404.43 289.617C404.43 289.617 415.115 288.476 415.76 292.49C416.406 296.503 411.381 291.79 406.969 291.532C402.558 291.274 398.534 291.919 398.824 294.588C398.922 296.949 398.782 299.314 398.405 301.646C400.82 299.64 403.873 298.564 407.013 298.612C411.865 298.902 411.682 301.991 407.271 301.732C402.859 301.474 399.072 305.67 399.072 305.67C399.072 305.67 403.096 312.546 408.207 315.946C413.318 319.346 415.158 318.098 415.739 315.505C416.32 312.912 414.964 306.165 418.052 306.348C421.14 306.531 412.941 317.991 416.879 318.669C420.818 319.346 423.992 318.206 425.025 315.613L426.101 313.02C426.101 313.02 424.723 306.295 425.326 303.68C425.929 301.065 426.649 303.755 427.349 306.908C428.048 310.061 428.489 317.593 429.834 317.227C431.179 316.861 435.494 311.373 436.506 309.211C437.517 307.048 430.824 300.473 430.9 299.15C430.975 297.826 436.14 300.344 436.947 301.722C437.533 302.768 438.061 303.845 438.528 304.95C438.528 304.95 441.756 302.927 441.67 296.729C441.584 290.531 436.979 292.425 436.979 292.425Z" fill="#263238"/>
<path d="M411.328 306.961C414.631 302.883 419.484 297.363 423.562 294.727" stroke="#263238" stroke-width="1.076" stroke-linecap="round" stroke-linejoin="round"/>
<path d="M407.507 311.921C407.507 311.921 408.347 310.749 409.724 308.984" stroke="#263238" stroke-width="1.076" stroke-linecap="round" stroke-linejoin="round"/>
<path d="M425.713 295.738C425.713 295.738 430.62 302.667 431.524 309.801" stroke="#263238" stroke-width="1.076" stroke-linecap="round" stroke-linejoin="round"/>
<path d="M420.14 299.838C420.14 299.838 421.517 299.031 421.001 307.854" stroke="#263238" stroke-width="1.076" stroke-linecap="round" stroke-linejoin="round"/>
<path d="M423.744 291.596C423.744 291.596 426.552 289.11 425.067 284.15" stroke="#263238" stroke-width="1.076" stroke-linecap="round" stroke-linejoin="round"/>
<path d="M419.957 295.846L417.955 292.188" stroke="#263238" stroke-width="1.076" stroke-linecap="round" stroke-linejoin="round"/>
<path d="M415.75 299.58C415.75 299.58 409.401 294.781 405.431 294.544" stroke="#263238" stroke-width="1.076" stroke-linecap="round" stroke-linejoin="round"/>
<path d="M455.013 279.351C455.013 279.351 454.809 286.625 449.128 286.98C443.446 287.335 439.939 277.866 434.128 280.147C428.318 282.428 427.758 292.801 427.758 292.801C427.758 292.801 433.267 288.271 436.237 290.552C439.207 292.833 438.518 296.362 436.915 295.803C435.312 295.243 426.682 293.317 426.381 299.838C426.26 301.697 426.518 303.561 427.137 305.318C427.757 307.074 428.726 308.688 429.986 310.06C429.986 310.06 436.129 298.579 440.606 300.666C445.082 302.754 436.915 304.583 433.644 308.822C430.373 313.062 428.264 317.527 431.158 319.066C433.589 320.571 435.861 322.319 437.937 324.284C437.937 324.284 437.162 318.28 440.756 313.621C444.35 308.962 447.309 311.243 444.049 315.483C440.789 319.722 442.403 326.383 442.403 326.383C442.403 326.383 452.022 327.039 458.908 324.231C465.795 321.422 465.838 318.754 463.621 316.376C461.405 313.998 453.744 310.791 456.025 307.768C458.306 304.744 464.202 320.82 467.57 317.334C470.938 313.847 471.949 309.898 470.056 307.09L468.162 304.292C468.162 304.292 460.501 301.064 458.284 298.697C456.068 296.33 459.263 297.428 462.89 298.869C466.516 300.311 474.36 305.013 474.919 303.41C475.479 301.807 472.907 293.726 471.444 291.273C469.98 288.82 458.811 291.004 457.542 290.025C456.272 289.046 462.308 285.592 464.235 285.721C465.679 285.841 467.115 286.038 468.538 286.313C468.538 286.313 468.711 281.707 462.448 277.565C456.186 273.422 455.013 279.351 455.013 279.351Z" fill="#27E0F6"/>
<path opacity="0.2" d="M455.013 279.351C455.013 279.351 454.809 286.625 449.128 286.98C443.446 287.335 439.939 277.866 434.128 280.147C428.318 282.428 427.758 292.801 427.758 292.801C427.758 292.801 433.267 288.271 436.237 290.552C439.207 292.833 438.518 296.362 436.915 295.803C435.312 295.243 426.682 293.317 426.381 299.838C426.26 301.697 426.518 303.561 427.137 305.318C427.757 307.074 428.726 308.688 429.986 310.06C429.986 310.06 436.129 298.579 440.606 300.666C445.082 302.754 436.915 304.583 433.644 308.822C430.373 313.062 428.264 317.527 431.158 319.066C433.589 320.571 435.861 322.319 437.937 324.284C437.937 324.284 437.162 318.28 440.756 313.621C444.35 308.962 447.309 311.243 444.049 315.483C440.789 319.722 442.403 326.383 442.403 326.383C442.403 326.383 452.022 327.039 458.908 324.231C465.795 321.422 465.838 318.754 463.621 316.376C461.405 313.998 453.744 310.791 456.025 307.768C458.306 304.744 464.202 320.82 467.57 317.334C470.938 313.847 471.949 309.898 470.056 307.09L468.162 304.292C468.162 304.292 460.501 301.064 458.284 298.697C456.068 296.33 459.263 297.428 462.89 298.869C466.516 300.311 474.36 305.013 474.919 303.41C475.479 301.807 472.907 293.726 471.444 291.273C469.98 288.82 458.811 291.004 457.542 290.025C456.272 289.046 462.308 285.592 464.235 285.721C465.679 285.841 467.115 286.038 468.538 286.313C468.538 286.313 468.711 281.707 462.448 277.565C456.186 273.422 455.013 279.351 455.013 279.351Z" fill="#263238"/>
<path d="M452.087 314.934C450.268 308.811 448.03 300.204 448.181 294.35" stroke="#263238" stroke-width="1.076" stroke-linecap="round" stroke-linejoin="round"/>
<path d="M454.442 322.154C454.442 322.154 453.84 320.497 453.011 317.925" stroke="#263238" stroke-width="1.076" stroke-linecap="round" stroke-linejoin="round"/>
<path d="M450.656 292.887C450.656 292.887 460.931 292.693 468.689 296.653" stroke="#263238" stroke-width="1.076" stroke-linecap="round" stroke-linejoin="round"/>
<path d="M450.978 301.28C450.978 301.28 451.107 299.354 459.586 305.885" stroke="#263238" stroke-width="1.076" stroke-linecap="round" stroke-linejoin="round"/>
<path d="M445.211 292.059C445.211 292.059 444.629 287.561 438.658 285.667" stroke="#263238" stroke-width="1.076" stroke-linecap="round" stroke-linejoin="round"/>
<path d="M446.835 298.719L441.81 298.224" stroke="#263238" stroke-width="1.076" stroke-linecap="round" stroke-linejoin="round"/>
<path d="M447.707 305.477C447.707 305.477 438.572 308.565 435.635 312.384" stroke="#263238" stroke-width="1.076" stroke-linecap="round" stroke-linejoin="round"/>
<path d="M394.057 327.771C394.057 327.771 422.959 346.87 422.475 420.845" stroke="#263238" stroke-width="2.15199" stroke-linecap="round" stroke-linejoin="round"/>
<path d="M429.695 322.724C429.695 322.724 428.769 331.095 422.163 330.966C415.556 330.837 412.479 319.582 405.506 321.67C398.534 323.757 396.952 335.658 396.952 335.658C396.952 335.658 403.752 330.945 406.959 333.871C410.165 336.798 409.036 340.79 407.239 339.994C405.442 339.198 395.661 336.153 394.703 343.652C394.392 345.787 394.518 347.962 395.073 350.047C395.627 352.131 396.6 354.081 397.931 355.779C397.931 355.779 406.109 343.114 411.069 345.955C416.03 348.796 406.442 350.119 402.268 354.703C398.093 359.287 395.263 364.236 398.426 366.28C401.093 368.248 403.552 370.484 405.765 372.952C405.765 372.952 405.431 365.958 410.015 360.911C414.599 355.865 417.816 358.759 413.641 363.375C409.466 367.991 410.714 375.792 410.714 375.792C410.714 375.792 421.765 377.46 429.975 374.878C438.184 372.295 438.475 369.218 436.14 366.27C433.805 363.321 425.272 358.888 428.188 355.682C431.104 352.475 436.387 371.521 440.605 367.808C444.823 364.096 446.351 359.652 444.436 356.231L442.521 352.809C442.521 352.809 433.988 348.387 431.653 345.428C429.318 342.469 432.901 344.061 436.947 346.063C440.993 348.064 449.611 354.229 450.397 352.443C451.182 350.657 448.987 341.102 447.535 338.1C446.082 335.098 432.987 336.594 431.61 335.346C430.233 334.097 437.539 330.687 439.745 331.042C441.387 331.315 443.014 331.674 444.619 332.118C444.619 332.118 445.243 326.824 438.41 321.444C431.578 316.064 429.695 322.724 429.695 322.724Z" fill="#27E0F6"/>
<path opacity="0.3" d="M429.695 322.724C429.695 322.724 428.769 331.095 422.163 330.966C415.556 330.837 412.479 319.582 405.506 321.67C398.534 323.757 396.952 335.658 396.952 335.658C396.952 335.658 403.752 330.945 406.959 333.871C410.165 336.798 409.036 340.79 407.239 339.994C405.442 339.198 395.661 336.153 394.703 343.652C394.392 345.787 394.518 347.962 395.073 350.047C395.627 352.131 396.6 354.081 397.931 355.779C397.931 355.779 406.109 343.114 411.069 345.955C416.03 348.796 406.442 350.119 402.268 354.703C398.093 359.287 395.263 364.236 398.426 366.28C401.093 368.248 403.552 370.484 405.765 372.952C405.765 372.952 405.431 365.958 410.015 360.911C414.599 355.865 417.816 358.759 413.641 363.375C409.466 367.991 410.714 375.792 410.714 375.792C410.714 375.792 421.765 377.46 429.975 374.878C438.184 372.295 438.475 369.218 436.14 366.27C433.805 363.321 425.272 358.888 428.188 355.682C431.104 352.475 436.387 371.521 440.605 367.808C444.823 364.096 446.351 359.652 444.436 356.231L442.521 352.809C442.521 352.809 433.988 348.387 431.653 345.428C429.318 342.469 432.901 344.061 436.947 346.063C440.993 348.064 449.611 354.229 450.397 352.443C451.182 350.657 448.987 341.102 447.535 338.1C446.082 335.098 432.987 336.594 431.61 335.346C430.233 334.097 437.539 330.687 439.745 331.042C441.387 331.315 443.014 331.674 444.619 332.118C444.619 332.118 445.243 326.824 438.41 321.444C431.578 316.064 429.695 322.724 429.695 322.724Z" fill="#263238"/>
<path d="M422.959 363.505C421.409 356.317 419.677 346.149 420.387 339.381" stroke="#263238" stroke-width="1.076" stroke-linecap="round" stroke-linejoin="round"/>
<path d="M425.003 372.059C425.003 372.059 424.465 370.09 423.744 367.045" stroke="#263238" stroke-width="1.076" stroke-linecap="round" stroke-linejoin="round"/>
<path d="M423.368 337.928C423.368 337.928 435.204 338.681 443.812 343.975" stroke="#263238" stroke-width="1.076" stroke-linecap="round" stroke-linejoin="round"/>
<path d="M422.97 347.548C422.97 347.548 423.303 345.342 432.471 353.681" stroke="#263238" stroke-width="1.076" stroke-linecap="round" stroke-linejoin="round"/>
<path d="M417.181 336.464C417.181 336.464 416.933 331.214 410.23 328.459" stroke="#263238" stroke-width="1.076" stroke-linecap="round" stroke-linejoin="round"/>
<path d="M418.429 344.298L412.684 343.254" stroke="#263238" stroke-width="1.076" stroke-linecap="round" stroke-linejoin="round"/>
<path d="M418.806 352.174C418.806 352.174 407.971 354.886 404.215 359.007" stroke="#263238" stroke-width="1.076" stroke-linecap="round" stroke-linejoin="round"/>
<path d="M405.324 386.057C405.324 386.057 423.939 400.26 425.897 421.328L421.98 350.775" stroke="#263238" stroke-width="2.15199" stroke-linecap="round" stroke-linejoin="round"/>
<path d="M450.386 375.771C425.896 371.359 425.896 421.329 425.896 421.329" stroke="#263238" stroke-width="2.15199" stroke-linecap="round" stroke-linejoin="round"/>
<path d="M428.834 420.844C428.834 420.844 414.631 317.484 455.734 317.484" stroke="#263238" stroke-width="2.15199" stroke-linecap="round" stroke-linejoin="round"/>
<path d="M441.058 372.801C437.711 369.035 430.599 369.035 426.424 378.654C422.249 388.274 426.005 386.606 426.005 386.606C426.005 386.606 433.945 384.088 438.97 382.42C443.995 380.752 450.677 376.567 451.097 379.074C451.516 381.581 447.75 384.088 443.145 384.927C438.54 385.766 426.424 389.113 427.672 391.663C428.92 394.213 431.858 401.702 431.858 401.702C435.43 398.667 439.201 395.874 443.145 393.341C448.59 389.995 451.936 391.243 449.009 395.009C446.083 398.775 437.711 402.95 439.39 407.975C441.068 413 451.097 419.262 451.097 419.262C451.097 419.262 452.356 408.814 455.282 405.468C458.209 402.122 458.209 405.888 457.37 411.741C456.95 414.234 456.67 416.749 456.531 419.273L468.237 423.459C470.152 420.544 472.247 417.751 474.51 415.098L476.662 412.946C476.662 412.946 467.463 405.005 467.043 400.034C466.623 395.063 473.316 400.034 475.403 400.873C477.491 401.713 480.837 407.566 480.837 407.566C480.837 407.566 482.935 397.947 483.355 394.6L483.775 391.254C483.775 391.254 474.984 387.908 471.637 387.908C468.291 387.908 466.623 390.415 466.623 387.079C466.623 383.744 469.97 381.635 473.736 382.054C477.143 382.624 480.5 383.462 483.775 384.561C483.775 384.561 486.282 382.474 485.443 376.201C484.603 369.928 482.516 369.928 477.502 371.596C472.488 373.263 469.13 377.04 465.364 377.04C461.598 377.04 463.697 372.435 466.204 371.187C468.711 369.939 474.984 367.421 476.243 367.001C477.502 366.581 469.55 360.728 465.364 359.889C461.179 359.049 455.767 362.041 456.165 366.162C456.95 374.888 444.404 376.599 441.058 372.801Z" fill="#27E0F6"/>
<path d="M467.979 415.863C468.108 417.118 468.194 418.377 468.237 419.64" stroke="#263238" stroke-width="1.076" stroke-linecap="round" stroke-linejoin="round"/>
<path d="M459.576 385.842C463.262 394.123 465.918 402.825 467.484 411.752" stroke="#263238" stroke-width="1.076" stroke-linecap="round" stroke-linejoin="round"/>
<path d="M458.069 382.485C456.003 378.03 454.443 375.308 454.443 375.308C456.725 374.233 458.622 372.483 459.876 370.294C460.855 368.312 462.289 366.59 464.062 365.269" stroke="#263238" stroke-width="1.076" stroke-linecap="round" stroke-linejoin="round"/>
<path d="M439.809 389.512C439.809 389.512 454.873 383.239 454.873 384.487" stroke="#263238" stroke-width="1.076" stroke-linecap="round" stroke-linejoin="round"/>
<path d="M463.18 381.581C463.18 381.581 469.872 378.234 475.726 378.234" stroke="#263238" stroke-width="1.076" stroke-linecap="round" stroke-linejoin="round"/>
<path d="M460.716 391.664C457.813 394.049 455.15 396.712 452.764 399.615C450.324 402.493 448.349 405.735 446.911 409.224" stroke="#263238" stroke-width="1.076" stroke-linecap="round" stroke-linejoin="round"/>
<path d="M465.332 393.299C465.332 393.299 474.123 390.781 478.717 394.967" stroke="#263238" stroke-width="1.076" stroke-linecap="round" stroke-linejoin="round"/>
<path d="M481.225 336.787C476.673 334.097 471.638 334.033 469.163 331.192C466.688 328.352 471.541 326.888 474.134 327.964C476.727 329.04 482.742 332.128 483.872 332.795C485.001 333.463 484.227 323.639 482.118 319.883C480.009 316.128 474.231 314.019 471.358 317.054C465.278 323.434 455.788 315.063 456.434 310.07C457.079 305.078 452.42 299.709 442.446 302.85C432.471 305.992 436.173 307.746 436.173 307.746C436.173 307.746 443.274 312.104 447.837 314.794C452.399 317.484 459.931 319.797 458.306 321.756C456.681 323.714 452.323 322.52 448.676 319.604C445.028 316.688 434.559 309.715 433.483 312.308C432.407 314.902 428.641 322.046 428.641 322.046C433.276 322.757 437.859 323.774 442.36 325.091C448.45 327.007 449.698 330.353 444.942 330.611C440.186 330.869 431.535 327.297 428.802 331.849C426.069 336.4 427.952 348.085 427.952 348.085C427.952 348.085 436.668 342.189 441.112 342.2C445.555 342.21 442.715 344.685 437.744 347.892C435.588 349.208 433.508 350.645 431.514 352.196L436.033 363.784C439.489 363.316 442.971 363.065 446.459 363.031L449.407 363.246C449.407 363.246 449.407 351.087 452.894 347.483C456.38 343.878 457.004 352.217 457.746 354.348C458.489 356.478 456.262 362.837 456.262 362.837C456.262 362.837 464.87 358.114 467.689 356.231L470.497 354.358C470.497 354.358 467.269 345.524 465.063 343.007C462.857 340.489 459.888 340.855 462.406 338.703C464.923 336.551 468.711 337.627 470.863 340.79C472.667 343.734 474.232 346.818 475.543 350.011C475.543 350.011 478.771 350.539 482.957 345.793C487.143 341.048 485.776 339.477 481.225 336.787ZM441.66 350.173C438.314 348.494 446.255 345.148 446.255 345.148C449.192 344.739 444.996 351.851 441.66 350.173ZM447.288 334.56C445.867 333.85 450.139 332.408 450.139 332.408C456.315 333.559 448.708 335.27 447.277 334.56H447.288Z" fill="#27E0F6"/>
<path d="M441.552 358.695C440.692 359.61 439.788 360.503 438.873 361.364" stroke="#263238" stroke-width="1.076" stroke-linecap="round" stroke-linejoin="round"/>
<path d="M458.714 332.667C454.871 340.872 450.032 348.573 444.307 355.596" stroke="#263238" stroke-width="1.076" stroke-linecap="round" stroke-linejoin="round"/>
<path d="M460.264 329.332C462.276 324.845 463.298 321.886 463.298 321.886C465.611 322.901 468.179 323.186 470.658 322.704C472.793 322.139 475.032 322.091 477.189 322.564" stroke="#263238" stroke-width="1.076" stroke-linecap="round" stroke-linejoin="round"/>
<path d="M456.627 328.234C457.573 327.405 442.972 320.153 442.972 320.153" stroke="#263238" stroke-width="1.076" stroke-linecap="round" stroke-linejoin="round"/>
<path d="M464.321 332.624C464.321 332.624 471.239 335.486 475.081 339.908" stroke="#263238" stroke-width="1.076" stroke-linecap="round" stroke-linejoin="round"/>
<path d="M455.099 337.315C451.396 336.687 447.641 336.42 443.887 336.518C440.11 336.566 436.364 337.201 432.783 338.401" stroke="#263238" stroke-width="1.076" stroke-linecap="round" stroke-linejoin="round"/>
<path d="M456.853 341.888C456.853 341.888 464.503 346.87 464.385 353.089" stroke="#263238" stroke-width="1.076" stroke-linecap="round" stroke-linejoin="round"/>
<path d="M416.234 394.73C412.575 392.578 408.519 392.524 406.55 390.232C404.581 387.94 408.454 386.789 410.542 387.65C412.629 388.511 417.471 391.007 418.386 391.545C419.3 392.083 418.666 384.164 416.965 381.183C415.265 378.203 410.617 376.47 408.304 378.902C403.408 384.045 395.768 377.299 396.296 373.285C396.823 369.272 393.068 364.946 385.008 367.475C376.949 370.003 379.962 371.413 379.962 371.413C379.962 371.413 385.676 374.921 389.345 377.084C393.014 379.246 399.082 381.119 397.77 382.69C396.457 384.26 392.96 383.314 390.023 380.957C387.085 378.601 378.66 372.995 377.799 375.082C376.938 377.17 373.904 382.915 373.904 382.915C377.634 383.491 381.322 384.31 384.944 385.369C389.84 386.907 390.84 389.597 387.01 389.802C383.179 390.006 376.25 387.133 374.098 390.803C371.946 394.472 373.409 403.876 373.409 403.876C373.409 403.876 380.425 399.12 383.997 399.131C387.569 399.141 385.288 401.132 381.296 403.714C379.561 404.774 377.887 405.931 376.282 407.179L379.908 416.497C382.691 416.124 385.494 415.926 388.301 415.906L390.679 416.067C390.679 416.067 390.679 406.286 393.487 403.381C396.296 400.476 396.791 407.19 397.382 408.912C397.974 410.633 396.188 415.744 396.188 415.744C396.188 415.744 403.139 411.935 405.388 410.429L407.647 408.912C407.647 408.912 405.043 401.81 403.279 399.776C401.514 397.743 399.104 398.055 401.127 396.29C403.15 394.525 406.195 395.451 407.927 397.958C409.38 400.329 410.643 402.812 411.704 405.382C411.704 405.382 414.297 405.802 417.665 401.993C421.033 398.184 419.903 396.903 416.234 394.73ZM384.384 405.49C381.694 404.145 388.086 401.455 388.086 401.455C390.442 401.132 387.074 406.856 384.384 405.501V405.49ZM388.936 392.944C387.784 392.363 391.228 391.222 391.228 391.222C396.188 392.18 390.066 393.514 388.936 392.944Z" fill="#27E0F6"/>
<path d="M384.32 412.366C383.621 413.097 382.9 413.818 382.168 414.518" stroke="#263238" stroke-width="1.076" stroke-linecap="round" stroke-linejoin="round"/>
<path d="M398.125 391.416C395.035 398.019 391.143 404.217 386.537 409.869" stroke="#263238" stroke-width="1.076" stroke-linecap="round" stroke-linejoin="round"/>
<path d="M399.373 388.726C400.987 385.121 401.816 382.743 401.816 382.743C403.676 383.557 405.74 383.786 407.734 383.4C409.45 382.945 411.251 382.908 412.985 383.292" stroke="#263238" stroke-width="1.076" stroke-linecap="round" stroke-linejoin="round"/>
<path d="M385.449 381.345C385.449 381.345 397.21 387.187 396.446 387.801" stroke="#263238" stroke-width="1.076" stroke-linecap="round" stroke-linejoin="round"/>
<path d="M402.634 391.384C402.634 391.384 408.197 393.686 411.242 397.248" stroke="#263238" stroke-width="1.076" stroke-linecap="round" stroke-linejoin="round"/>
<path d="M395.209 395.16C392.232 394.655 389.212 394.443 386.193 394.525C383.154 394.554 380.139 395.066 377.262 396.042" stroke="#263238" stroke-width="1.076" stroke-linecap="round" stroke-linejoin="round"/>
<path d="M396.63 398.84C396.63 398.84 402.784 402.854 402.666 407.846" stroke="#263238" stroke-width="1.076" stroke-linecap="round" stroke-linejoin="round"/>
<path d="M401.299 325.673C401.299 325.673 396.694 329.019 393.767 325.673C390.841 322.326 395.026 315.633 390.841 313.126C386.655 310.619 379.973 315.214 379.973 315.214C379.973 315.214 385.407 316.473 385.407 319.399C385.407 322.326 382.9 323.585 382.48 322.326C382.06 321.067 379.134 314.794 374.948 317.732C373.742 318.544 372.713 319.592 371.924 320.812C371.134 322.033 370.6 323.401 370.354 324.833C370.354 324.833 380.382 323.165 381.221 326.931C382.06 330.697 377.046 326.512 372.861 326.512C368.675 326.512 364.909 327.351 365.329 329.858C365.556 332.083 365.556 334.326 365.329 336.551C367.495 334.523 370.315 333.336 373.28 333.205C377.875 333.205 377.875 336.131 373.7 336.131C369.525 336.131 366.168 340.317 366.168 340.317C366.168 340.317 370.354 346.59 375.368 349.517C380.382 352.443 382.06 351.184 382.48 348.677C382.9 346.17 381.221 339.897 384.148 339.897C387.075 339.897 379.973 351.184 383.728 351.604C387.483 352.024 390.421 350.765 391.26 348.258L392.099 345.751C392.099 345.751 390.421 339.478 390.841 336.971C391.26 334.463 392.099 336.971 392.928 339.897C393.756 342.824 394.607 349.925 395.865 349.517C397.124 349.108 400.88 343.652 401.719 341.565C402.558 339.478 395.865 333.624 395.865 332.365C395.865 331.106 400.88 333.204 401.719 334.453C402.558 335.701 403.387 337.379 403.387 337.379C403.387 337.379 406.313 335.292 405.894 329.439C405.474 323.585 401.299 325.673 401.299 325.673Z" fill="#27E0F6"/>
<path d="M377.864 340.844C380.758 336.809 385.052 331.321 388.753 328.599" stroke="#263238" stroke-width="1.076" stroke-linecap="round" stroke-linejoin="round"/>
<path d="M374.529 345.75C374.529 345.75 375.271 344.588 376.466 342.845" stroke="#263238" stroke-width="1.076" stroke-linecap="round" stroke-linejoin="round"/>
<path d="M390.841 329.438C390.841 329.438 395.866 335.712 397.114 342.404" stroke="#263238" stroke-width="1.076" stroke-linecap="round" stroke-linejoin="round"/>
<path d="M385.827 333.624C385.827 333.624 387.075 332.785 387.075 341.156" stroke="#263238" stroke-width="1.076" stroke-linecap="round" stroke-linejoin="round"/>
<path d="M388.753 325.672C388.753 325.672 391.26 323.165 389.592 318.56" stroke="#263238" stroke-width="1.076" stroke-linecap="round" stroke-linejoin="round"/>
<path d="M385.407 329.859L383.32 326.512" stroke="#263238" stroke-width="1.076" stroke-linecap="round" stroke-linejoin="round"/>
<path d="M381.64 333.624C381.64 333.624 375.367 329.438 371.601 329.438" stroke="#263238" stroke-width="1.076" stroke-linecap="round" stroke-linejoin="round"/>
<path d="M443.532 419.37H411.199V465.907H443.532V419.37Z" fill="#263238" stroke="#263238" stroke-width="2.15199" stroke-linecap="round" stroke-linejoin="round"/>
</svg>
